<svg width="89" height="88" viewBox="0 0 89 88" fill="none" xmlns="http://www.w3.org/2000/svg">
<rect x="1" y="0.5" width="87" height="87" rx="9.5" fill="url(#paint0_linear_44_335)"/>
<rect x="1" y="0.5" width="87" height="87" rx="9.5" fill="url(#paint1_linear_44_335)" fill-opacity="0.2"/>
<rect x="1" y="0.5" width="87" height="87" rx="9.5" stroke="url(#paint2_linear_44_335)"/>
<path d="M40.2112 53.1936H54.4336C56.21 53.1936 56.8436 52.6926 56.8436 51.7127C56.8436 48.84 53.189 44.8761 47.3167 44.8761C41.4557 44.8761 37.8012 48.84 37.8012 51.7127C37.8012 52.6926 38.4347 53.1936 40.2112 53.1936ZM47.328 42.883C49.7607 42.883 51.8538 40.7452 51.8538 37.9616C51.8538 35.2114 49.7494 33.1738 47.328 33.1738C44.9067 33.1738 42.8022 35.256 42.8022 37.9839C42.8022 40.7452 44.8954 42.883 47.328 42.883ZM27.9914 53.1936H36.5905C35.4138 51.5123 36.8507 48.1274 39.2833 46.2791C38.0274 45.4552 36.4094 44.8427 34.2936 44.8427C29.1907 44.8427 26 48.5505 26 51.6348C26 52.6369 26.5657 53.1936 27.9914 53.1936ZM34.3049 43.1392C36.4094 43.1392 38.2424 41.2686 38.2424 38.8524C38.2424 36.4585 36.3981 34.6881 34.3049 34.6881C32.2004 34.6881 30.3448 36.503 30.3561 38.8747C30.3561 41.2686 32.1891 43.1392 34.3049 43.1392ZM55.7008 42.5491C56.0856 42.8051 56.6173 42.7272 56.9228 42.2929C57.7941 41.1683 58.3146 39.5094 58.3146 37.8058C58.3146 36.1022 57.7941 34.4543 56.9228 33.3186C56.6173 32.8843 56.0856 32.8064 55.7008 33.0625C55.2483 33.3743 55.169 33.931 55.5311 34.3875C56.1873 35.2782 56.5607 36.5142 56.5607 37.8058C56.5607 39.0974 56.1761 40.3221 55.5311 41.224C55.1804 41.6917 55.2483 42.2261 55.7008 42.5491ZM59.8986 45.4552C60.3172 45.7335 60.8376 45.6333 61.1431 45.2102C62.5914 43.2506 63.44 40.556 63.44 37.8058C63.44 35.0556 62.6028 32.3387 61.1431 30.4014C60.8376 29.9782 60.3172 29.878 59.8986 30.1564C59.4799 30.4348 59.4121 30.9581 59.7402 31.4146C60.9735 33.1293 61.6862 35.4341 61.6862 37.8058C61.6862 40.1774 60.9508 42.4711 59.7402 44.1969C59.4234 44.6534 59.4799 45.1768 59.8986 45.4552Z" fill="#9EFF00"/>
<defs>
<linearGradient id="paint0_linear_44_335" x1="44.5" y1="0" x2="44.5" y2="88" gradientUnits="userSpaceOnUse">
<stop stop-color="#242424"/>
<stop offset="1" stop-color="#242424" stop-opacity="0"/>
</linearGradient>
<linearGradient id="paint1_linear_44_335" x1="204.5" y1="-87.5" x2="0.500008" y2="88" gradientUnits="userSpaceOnUse">
<stop offset="0.224072" stop-color="#9EFF00"/>
<stop offset="0.687143" stop-color="#9EFF00" stop-opacity="0"/>
</linearGradient>
<linearGradient id="paint2_linear_44_335" x1="44.5" y1="0" x2="44.5" y2="88" gradientUnits="userSpaceOnUse">
<stop stop-color="#2E2E2E"/>
<stop offset="1" stop-color="#2E2E2E" stop-opacity="0"/>
</linearGradient>
</defs>
</svg>
