<svg width="88" height="88" viewBox="0 0 88 88" fill="none" xmlns="http://www.w3.org/2000/svg">
<rect x="0.5" y="0.5" width="87" height="87" rx="11.5" fill="url(#paint0_linear_44_5935)" fill-opacity="0.2"/>
<rect x="0.5" y="0.5" width="87" height="87" rx="11.5" stroke="#262626"/>
<path d="M28.2861 37.3259C28.2861 38.7991 29.8598 39.1674 30.7973 38.2132L38.2136 30.7969C39.1846 29.8426 38.7995 28.2857 37.3263 28.2857H29.8096C28.8721 28.2857 28.2861 28.9219 28.2861 29.8259V37.3259ZM32.6053 34.7143L53.8163 55.942L55.9424 53.8493L34.7314 32.6049L32.6053 34.7143ZM60.2783 51.2377C60.2783 49.7477 58.7047 49.3961 57.7504 50.3337L50.3341 57.75C49.3798 58.721 49.765 60.2779 51.2381 60.2779H58.7548C59.6924 60.2779 60.2783 59.625 60.2783 58.7377V51.2377ZM60.2783 37.3259V29.8259C60.2783 28.9219 59.6924 28.2857 58.7548 28.2857H51.2381C49.765 28.2857 49.3798 29.8426 50.3341 30.7969L57.7504 38.2132C58.7047 39.1674 60.2783 38.7991 60.2783 37.3259ZM34.7314 55.942L55.9591 34.7143L53.833 32.6049L32.6053 53.8326L34.7314 55.942ZM28.2861 51.2377V58.7377C28.2861 59.625 28.8721 60.2779 29.8096 60.2779H37.3263C38.7995 60.2779 39.1846 58.721 38.2136 57.75L30.7973 50.3337C29.8598 49.3961 28.2861 49.7477 28.2861 51.2377Z" fill="#9EFF00"/>
<defs>
<linearGradient id="paint0_linear_44_5935" x1="-113.5" y1="-87" x2="88" y2="88" gradientUnits="userSpaceOnUse">
<stop offset="0.224072" stop-color="#9EFF00"/>
<stop offset="0.707836" stop-color="#9EFF00" stop-opacity="0"/>
</linearGradient>
</defs>
</svg>
