<svg width="88" height="88" viewBox="0 0 88 88" fill="none" xmlns="http://www.w3.org/2000/svg">
<rect x="0.5" y="0.5" width="87" height="87" rx="11.5" fill="url(#paint0_linear_44_5929)" fill-opacity="0.2"/>
<rect x="0.5" y="0.5" width="87" height="87" rx="11.5" stroke="#262626"/>
<g clip-path="url(#clip0_44_5929)">
<path d="M29.7202 43.933C29.7202 42.4095 29.9545 40.9364 30.3898 39.5803L27.7614 38.4754C27.1922 40.1997 26.8574 42.0245 26.8574 43.933C26.8574 45.8247 27.1922 47.6663 27.7782 49.3905L30.3898 48.2857C29.9545 46.9297 29.7202 45.4564 29.7202 43.933ZM37.421 31.2433L36.3496 28.6651C33.0349 30.3225 30.3061 33.0513 28.6487 36.366L31.2603 37.4542C32.5996 34.7924 34.776 32.616 37.421 31.2433ZM43.9166 29.7031C45.44 29.7031 46.9133 29.9375 48.3027 30.3895L49.3741 27.7779C47.6499 27.1919 45.8083 26.8571 43.9166 26.8571C42.0248 26.8571 40.1666 27.1919 38.4423 27.7779L39.5472 30.3895C40.9199 29.9375 42.3931 29.7031 43.9166 29.7031ZM56.6063 37.4375L59.2011 36.366C57.5271 33.0513 54.7983 30.3225 51.4836 28.6484L50.4121 31.2433C53.0571 32.5993 55.2503 34.7756 56.6063 37.4375ZM58.1633 43.933C58.1633 45.4564 57.9289 46.9297 57.4936 48.3024L60.0884 49.4074C60.6744 47.683 61.0091 45.8247 61.0091 43.933C61.0091 42.0245 60.6744 40.183 60.0884 38.4587L57.4769 39.5636C57.9289 40.9364 58.1633 42.4095 58.1633 43.933ZM50.4121 56.606L51.4836 59.2175C54.815 57.5435 57.5439 54.8147 59.1844 51.5L56.623 50.4285C55.267 53.0904 53.074 55.25 50.4121 56.606ZM43.9333 58.163C42.3931 58.163 40.9199 57.9285 39.5472 57.4765L38.459 60.0881C40.1833 60.6741 42.0416 61.0088 43.9333 61.0088C45.825 61.0088 47.6666 60.6741 49.3741 60.1048L48.286 57.4933C46.9133 57.9285 45.4567 58.163 43.9333 58.163ZM31.2603 50.4285L28.6655 51.5C30.3396 54.8147 33.0349 57.5435 36.3496 59.2008L37.421 56.5893C34.776 55.2333 32.5996 53.0737 31.2603 50.4285ZM43.8999 55.6183C50.4121 55.6183 55.6019 50.4285 55.5851 43.933C55.5684 37.4375 50.3786 32.2477 43.8831 32.2477C37.3876 32.2477 32.2313 37.4207 32.2313 43.933C32.2313 50.4453 37.4043 55.6183 43.8999 55.6183Z" fill="#9EFF00"/>
</g>
<defs>
<linearGradient id="paint0_linear_44_5929" x1="-113.5" y1="-87" x2="88" y2="88" gradientUnits="userSpaceOnUse">
<stop offset="0.224072" stop-color="#9EFF00"/>
<stop offset="0.707836" stop-color="#9EFF00" stop-opacity="0"/>
</linearGradient>
<clipPath id="clip0_44_5929">
<rect width="34.1517" height="34.1686" fill="white" transform="translate(26.8574 26.8571)"/>
</clipPath>
</defs>
</svg>
