<svg width="88" height="88" viewBox="0 0 88 88" fill="none" xmlns="http://www.w3.org/2000/svg">
<rect x="0.5" y="0.5" width="87" height="87" rx="11.5" fill="url(#paint0_linear_44_5857)" fill-opacity="0.2"/>
<rect x="0.5" y="0.5" width="87" height="87" rx="11.5" stroke="#262626"/>
<path d="M25.5 44.2102C25.5 51.269 29.573 57.4983 35.1389 60.5576C37.0741 61.645 38.6775 59.0648 36.5396 57.8301C31.9136 55.2498 28.6515 50.1263 28.6515 44.2102C28.6515 35.5113 35.5812 28.5447 44.2802 28.5447C52.9793 28.5447 59.9642 35.5113 59.9642 44.2102C59.9642 45.316 60.8119 45.8506 61.623 45.8506C62.3785 45.8506 63.0972 45.2976 63.0972 44.2102C63.0972 33.9263 54.5642 25.4116 44.2802 25.4116C34.0147 25.4116 25.5 33.9263 25.5 44.2102ZM32.9457 44.2102C32.9457 48.3202 35.1942 51.7666 37.885 53.4991C39.7464 54.7522 41.3498 52.2642 39.7833 51.1952C37.498 49.7024 35.9867 47.1406 35.9867 44.2102C35.9867 39.5659 39.6727 35.8799 44.2802 35.8799C48.8877 35.8799 52.4447 39.5474 52.6106 44.2102C52.6474 45.0581 53.2925 45.7214 54.1402 45.7214C54.9881 45.7214 55.6516 45.0581 55.6516 44.2102C55.6516 37.9809 50.5095 32.8389 44.2802 32.8389C38.0877 32.8389 32.9457 37.9809 32.9457 44.2102ZM43.5799 57.5536C43.5615 58.2724 44.4092 58.512 44.87 58.0512L47.6898 55.2314L50.8413 63.0088C50.9887 63.3591 51.3573 63.525 51.689 63.3959L53.5137 62.6588C53.8453 62.5112 53.9745 62.1242 53.8085 61.7741L50.5095 54.1072L54.4721 53.9597C55.1724 53.9229 55.5041 53.241 55.0065 52.725L44.9437 42.3672C44.4645 41.888 43.7642 42.1645 43.7458 42.8464L43.5799 57.5536Z" fill="#9EFF00"/>
<defs>
<linearGradient id="paint0_linear_44_5857" x1="-113.5" y1="-87" x2="88" y2="88" gradientUnits="userSpaceOnUse">
<stop offset="0.224072" stop-color="#9EFF00"/>
<stop offset="0.707836" stop-color="#9EFF00" stop-opacity="0"/>
</linearGradient>
</defs>
</svg>
