<svg width="88" height="88" viewBox="0 0 88 88" fill="none" xmlns="http://www.w3.org/2000/svg">
<rect x="0.5" y="0.5" width="87" height="87" rx="11.5" fill="url(#paint0_linear_44_5862)" fill-opacity="0.2"/>
<rect x="0.5" y="0.5" width="87" height="87" rx="11.5" stroke="#262626"/>
<path d="M25.75 50.4542C25.75 50.7568 25.9013 51.1146 26.1352 51.3484L32.2026 57.5672C32.464 57.8424 32.7805 57.98 33.1244 57.98C33.4546 57.98 33.7711 57.8424 34.0325 57.5672L40.1137 51.3484C40.3475 51.1146 40.4851 50.7568 40.4851 50.4542C40.4851 49.725 39.9898 49.2435 39.2743 49.2435C38.9166 49.2435 38.6415 49.3535 38.4351 49.5736L36.4402 51.6787L34.2113 54.2378L34.3489 51.0595V37.9204L34.2113 34.7422L36.4402 37.3013L38.4351 39.4063C38.6415 39.6264 38.9166 39.7365 39.2743 39.7365C39.9898 39.7365 40.4851 39.255 40.4851 38.5258C40.4851 38.2231 40.3475 37.8654 40.1137 37.6315L34.0325 31.4127C33.7711 31.1376 33.4546 31 33.1244 31C32.7805 31 32.464 31.1376 32.2026 31.4127L26.1352 37.6315C25.9013 37.8654 25.75 38.2231 25.75 38.5258C25.75 39.255 26.2453 39.7365 26.9607 39.7365C27.3184 39.7365 27.6074 39.6127 27.8 39.4063L29.8087 37.3013L32.0238 34.7422L31.8862 37.9204V51.0595L32.0238 54.2378L29.8087 51.6787L27.8 49.5736C27.6074 49.3673 27.3184 49.2435 26.9607 49.2435C26.2453 49.2435 25.75 49.725 25.75 50.4542ZM43.1679 40.8509C43.1679 41.2499 43.4707 41.5663 43.8971 41.6214C50.3773 42.3506 51.3267 43.2586 52.1933 49.9451C52.2621 50.3579 52.5787 50.6331 52.9501 50.6331C53.3353 50.6331 53.6517 50.3579 53.7205 49.9451C54.5873 43.2586 55.5229 42.3506 62.003 41.6214C62.4433 41.5663 62.7322 41.2499 62.7322 40.8509C62.7322 40.4519 62.4433 40.1355 62.003 40.0805C55.5367 39.3513 54.5873 38.4295 53.7205 31.7567C53.6517 31.3577 53.3491 31.0825 52.9501 31.0825C52.5648 31.0825 52.2621 31.3577 52.1933 31.7567C51.2716 38.3882 50.3911 39.2137 43.8971 40.0805C43.4707 40.1355 43.1679 40.4519 43.1679 40.8509ZM41.861 52.8344C41.861 53.1095 42.0535 53.3434 42.3562 53.4122C45.8646 54.0726 45.9334 54.0314 46.3323 57.3333C46.3874 57.6497 46.6075 57.8836 46.9102 57.8836C47.2267 57.8836 47.4468 57.6635 47.5018 57.3471C47.942 53.8938 48.0934 53.8938 51.4504 53.4122C51.7669 53.3572 51.9732 53.1234 51.9732 52.8344C51.9732 52.5592 51.7807 52.3115 51.4642 52.2566C48.0522 51.5962 47.9559 51.6787 47.5018 48.3079C47.4468 48.0052 47.2128 47.7851 46.9102 47.7851C46.6075 47.7851 46.3874 48.019 46.3323 48.3354C45.9334 51.6374 45.8508 51.6924 42.4113 52.2566C42.0673 52.3115 41.861 52.5316 41.861 52.8344Z" fill="#9EFF00"/>
<defs>
<linearGradient id="paint0_linear_44_5862" x1="-113.5" y1="-87" x2="88" y2="88" gradientUnits="userSpaceOnUse">
<stop offset="0.224072" stop-color="#9EFF00"/>
<stop offset="0.707836" stop-color="#9EFF00" stop-opacity="0"/>
</linearGradient>
</defs>
</svg>
