<svg width="88" height="88" viewBox="0 0 88 88" fill="none" xmlns="http://www.w3.org/2000/svg">
<rect x="0.5" y="0.5" width="87" height="87" rx="11.5" fill="url(#paint0_linear_44_5842)" fill-opacity="0.2"/>
<rect x="0.5" y="0.5" width="87" height="87" rx="11.5" stroke="#262626"/>
<path d="M28 45.6977V48.0669C28 51.1754 29.5694 52.7449 32.7383 52.7449H36.5561V50.3154H32.7685C31.2595 50.3154 30.4295 49.5005 30.4295 47.9311V45.6977H28ZM30.4295 43.6304V36.7794H28V43.6304H30.4295ZM30.4295 34.7272V32.9314C30.4295 31.3621 31.2595 30.5472 32.7685 30.5472H34.9566V28.1177H32.7383C29.5694 28.1177 28 29.687 28 32.7956V34.7272H30.4295ZM43.8598 28.1177H37.0088V30.5472H43.8598V28.1177ZM45.9121 30.5472H47.8437C49.3375 30.5472 50.1826 31.3621 50.1826 32.9314V36.2362H52.6121V32.7956C52.6121 29.687 51.0276 28.1177 47.8889 28.1177H45.9121V30.5472ZM59.9309 51.4622V39.7824C59.9309 36.6738 58.3464 35.1044 55.2076 35.1044H40.0571C36.8881 35.1044 35.3187 36.6587 35.3187 39.7824V55.0537C35.3187 58.1622 36.8881 59.7317 40.0571 59.7317H47.6625V57.3022H40.0873C38.5933 57.3022 37.7483 56.4872 37.7483 54.9179V39.9183C37.7483 38.3488 38.5933 37.5339 40.0873 37.5339H55.1624C56.6563 37.5339 57.5014 38.3488 57.5014 39.9183V49.0176L59.9309 51.4622ZM49.0206 57.0003C49.0056 57.5888 49.6998 57.7699 50.0769 57.4078L52.3858 55.0989L54.9662 61.467C55.087 61.7537 55.3887 61.8896 55.6604 61.7839L57.1693 61.1803C57.4259 61.0595 57.5466 60.7426 57.3957 60.456L54.6946 54.1785L57.954 54.0577C58.5124 54.0276 58.7991 53.4692 58.3917 53.0467L50.1373 44.5659C49.76 44.1736 49.1715 44.4 49.1565 44.9583L49.0206 57.0003Z" fill="#9EFF00"/>
<defs>
<linearGradient id="paint0_linear_44_5842" x1="-113.5" y1="-87" x2="88" y2="88" gradientUnits="userSpaceOnUse">
<stop offset="0.224072" stop-color="#9EFF00"/>
<stop offset="0.707836" stop-color="#9EFF00" stop-opacity="0"/>
</linearGradient>
</defs>
</svg>
