<svg width="88" height="88" viewBox="0 0 88 88" fill="none" xmlns="http://www.w3.org/2000/svg">
<rect x="0.5" y="0.5" width="87" height="87" rx="11.5" fill="url(#paint0_linear_44_5902)" fill-opacity="0.2"/>
<rect x="0.5" y="0.5" width="87" height="87" rx="11.5" stroke="#262626"/>
<path d="M45.7174 30.518C46.4805 30.518 47.0611 29.9374 47.0611 29.1743C47.0611 28.4278 46.4805 27.8471 45.7174 27.8471H33.574L36.2117 30.518H45.7174ZM50.379 35.2626C51.1255 35.2626 51.7227 34.6653 51.7227 33.9022C51.7227 33.1557 51.1255 32.5917 50.379 32.5917H38.2024L40.8401 35.2626H50.379ZM54.941 39.9905C55.6876 39.9905 56.2683 39.3933 56.2683 38.6302C56.2683 37.8837 55.6876 37.3196 54.941 37.3196H42.8309L45.4685 39.9905H54.941ZM59.5529 42.0476H47.4593C48.4546 43.0595 48.9025 43.6733 48.9689 44.7185H59.5529C60.2994 44.7185 60.8966 44.1378 60.8966 43.3748C60.8966 42.6282 60.2994 42.0476 59.5529 42.0476ZM44.2077 58.4379L38.2522 44.5195L37.4559 45.8797L45.7174 46.3442C46.8289 46.4106 47.3598 45.2161 46.5635 44.4032L30.14 27.6149C29.4101 26.8684 28.282 27.2831 28.282 28.3282L28 51.686C28 52.8306 29.2774 53.2952 30.0073 52.4491L35.3491 46.5432L33.8063 46.1452L39.5628 60.3788C39.795 60.9428 40.3756 61.2082 40.8899 60.9761L43.7433 59.7981C44.2741 59.5991 44.4566 58.9853 44.2077 58.4379Z" fill="#9EFF00"/>
<defs>
<linearGradient id="paint0_linear_44_5902" x1="-113.5" y1="-87" x2="88" y2="88" gradientUnits="userSpaceOnUse">
<stop offset="0.224072" stop-color="#9EFF00"/>
<stop offset="0.707836" stop-color="#9EFF00" stop-opacity="0"/>
</linearGradient>
</defs>
</svg>
