<svg width="88" height="88" viewBox="0 0 88 88" fill="none" xmlns="http://www.w3.org/2000/svg">
<rect x="0.5" y="0.5" width="87" height="87" rx="11.5" fill="url(#paint0_linear_44_5908)" fill-opacity="0.2"/>
<rect x="0.5" y="0.5" width="87" height="87" rx="11.5" stroke="#262626"/>
<g clip-path="url(#clip0_44_5908)">
<path d="M31.404 60.0752C32.5284 60.0752 33.4247 59.1789 33.4247 58.0545C33.4247 56.93 32.5121 56.0338 31.404 56.0338C30.2796 56.0338 29.3833 56.9463 29.3833 58.0545C29.3833 59.1952 30.2959 60.0752 31.404 60.0752ZM26.287 47.6738C27.4114 47.6738 28.3077 46.745 28.3077 45.6368C28.3077 44.4961 27.3789 43.6161 26.287 43.6161C25.1626 43.6161 24.25 44.5287 24.25 45.6368C24.25 46.7613 25.1789 47.6738 26.287 47.6738ZM31.404 35.2725C32.5284 35.2725 33.4247 34.3599 33.4247 33.2518C33.4247 32.111 32.5121 31.2311 31.404 31.2311C30.2796 31.2311 29.3833 32.1273 29.3833 33.2518C29.3833 34.3762 30.2959 35.2725 31.404 35.2725ZM43.9031 30.0577C45.0275 30.0577 45.9238 29.1452 45.9238 28.0207C45.9238 26.8963 45.0113 26 43.9031 26C42.7624 26 41.8824 26.9126 41.8824 28.0207C41.8824 29.1614 42.7787 30.0577 43.9031 30.0577ZM56.386 35.2399C57.5104 35.2399 58.4067 34.3273 58.4067 33.2192C58.4067 32.0784 57.494 31.1985 56.386 31.1985C55.2453 31.1985 54.3489 32.0947 54.3489 33.2192C54.3489 34.3436 55.2615 35.2399 56.386 35.2399ZM61.5192 47.6738C62.6437 47.6738 63.5562 46.745 63.5562 45.6368C63.5562 44.4961 62.6274 43.6161 61.5192 43.6161C60.3785 43.6161 59.4821 44.5287 59.4821 45.6368C59.4821 46.7613 60.4111 47.6738 61.5192 47.6738ZM56.3697 60.0914C57.494 60.0914 58.3904 59.1952 58.3904 58.0708C58.3904 56.9463 57.4777 56.0501 56.3697 56.0501C55.2288 56.0501 54.3326 56.9626 54.3326 58.0708C54.3326 59.2115 55.2453 60.0914 56.3697 60.0914ZM43.9031 57.5003C50.4378 57.5003 55.7503 52.2042 55.7503 45.6368C55.7503 39.5095 51.0897 34.474 45.109 33.871L45.0928 45.8813C45.0928 46.5331 44.5223 47.1035 43.9031 47.0872C43.1861 47.0545 42.6809 46.5493 42.6809 45.8486V33.871C36.7165 34.474 32.0395 39.5095 32.0395 45.6368C32.0395 52.2205 37.3684 57.5003 43.9031 57.5003Z" fill="#9EFF00"/>
</g>
<defs>
<linearGradient id="paint0_linear_44_5908" x1="-113.5" y1="-87" x2="88" y2="88" gradientUnits="userSpaceOnUse">
<stop offset="0.224072" stop-color="#9EFF00"/>
<stop offset="0.707836" stop-color="#9EFF00" stop-opacity="0"/>
</linearGradient>
<clipPath id="clip0_44_5908">
<rect width="39.3062" height="36.65" fill="white" transform="translate(24.25 26)"/>
</clipPath>
</defs>
</svg>
