<svg width="80" height="80" viewBox="0 0 80 80" fill="none" xmlns="http://www.w3.org/2000/svg">
<rect x="0.5" y="0.5" width="79" height="79" rx="11.5" fill="url(#paint0_linear_37_396)"/>
<rect x="0.5" y="0.5" width="79" height="79" rx="11.5" stroke="url(#paint1_linear_37_396)"/>
<path d="M32.5021 51.308C30.5421 51.308 28.9835 50.7573 27.8261 49.656C26.6875 48.536 26.1181 47.0333 26.1181 45.148V37.252C26.1181 35.3853 26.6875 33.9107 27.8261 32.828C28.9835 31.7267 30.5421 31.176 32.5021 31.176C34.4621 31.176 36.0208 31.7267 37.1781 32.828C38.3541 33.9107 38.9421 35.3853 38.9421 37.252V45.148C38.9421 47.0333 38.3541 48.536 37.1781 49.656C36.0208 50.7573 34.4621 51.308 32.5021 51.308ZM32.5021 48.48C33.4728 48.48 34.2475 48.2 34.8261 47.64C35.4048 47.0613 35.6941 46.2867 35.6941 45.316V37.14C35.6941 36.1693 35.4048 35.404 34.8261 34.844C34.2475 34.2653 33.4728 33.976 32.5021 33.976C31.5501 33.976 30.7848 34.2653 30.2061 34.844C29.6461 35.404 29.3661 36.1693 29.3661 37.14V45.316C29.3661 46.2867 29.6461 47.0613 30.2061 47.64C30.7848 48.2 31.5501 48.48 32.5021 48.48ZM53.5122 42.516C53.9229 43.3373 54.1282 44.28 54.1282 45.344C54.1282 46.464 53.8855 47.4813 53.4002 48.396C52.9149 49.2733 52.2055 49.964 51.2722 50.468C50.3389 50.972 49.2375 51.224 47.9682 51.224C46.7175 51.224 45.6069 50.9813 44.6362 50.496C43.6655 49.992 42.9375 49.264 42.4522 48.312C41.9669 47.4347 41.7242 46.436 41.7242 45.316C41.7242 44.308 41.9389 43.356 42.3682 42.46C42.7415 41.6947 43.2735 41.116 43.9642 40.724C44.0575 40.668 44.0669 40.6027 43.9922 40.528C43.5255 40.192 43.1055 39.7253 42.7322 39.128C42.2469 38.344 42.0042 37.476 42.0042 36.524C42.0042 35.348 42.3495 34.2933 43.0402 33.36C43.5442 32.632 44.2255 32.072 45.0842 31.68C45.9429 31.2693 46.9042 31.064 47.9682 31.064C49.0695 31.064 50.0309 31.2693 50.8522 31.68C51.6922 32.072 52.3642 32.632 52.8682 33.36C53.5215 34.312 53.8482 35.3667 53.8482 36.524C53.8482 37.5507 53.5962 38.4467 53.0922 39.212C52.7375 39.7347 52.3269 40.164 51.8602 40.5C51.7855 40.5747 51.7855 40.64 51.8602 40.696C52.5695 41.1067 53.1202 41.7133 53.5122 42.516ZM45.5602 35.292C45.3362 35.7773 45.2242 36.2067 45.2242 36.58C45.2242 37.2147 45.3829 37.784 45.7002 38.288C46.1482 39.0533 46.8949 39.436 47.9402 39.436C48.9482 39.436 49.7135 39.044 50.2362 38.26C50.5162 37.8493 50.6562 37.28 50.6562 36.552C50.6562 36.1413 50.5535 35.712 50.3482 35.264C50.1055 34.8347 49.7789 34.4987 49.3682 34.256C48.9575 33.9947 48.4722 33.864 47.9122 33.864C47.3895 33.864 46.9229 33.9947 46.5122 34.256C46.1015 34.4987 45.7842 34.844 45.5602 35.292ZM50.2642 47.276C50.6562 46.7347 50.8522 45.9973 50.8522 45.064C50.8522 44.2053 50.7029 43.5333 50.4042 43.048C49.9375 42.1893 49.1162 41.76 47.9402 41.76C46.8389 41.76 46.0362 42.1707 45.5322 42.992C45.2149 43.496 45.0562 44.196 45.0562 45.092C45.0562 45.9507 45.2242 46.6507 45.5602 47.192C46.0642 48.0133 46.8669 48.424 47.9682 48.424C49.0135 48.424 49.7789 48.0413 50.2642 47.276Z" fill="white"/>
<defs>
<linearGradient id="paint0_linear_37_396" x1="40" y1="0" x2="40" y2="80" gradientUnits="userSpaceOnUse">
<stop stop-color="#242424"/>
<stop offset="1" stop-color="#242424" stop-opacity="0"/>
</linearGradient>
<linearGradient id="paint1_linear_37_396" x1="40" y1="0" x2="40" y2="80" gradientUnits="userSpaceOnUse">
<stop stop-color="#2E2E2E"/>
<stop offset="1" stop-color="#2E2E2E" stop-opacity="0"/>
</linearGradient>
</defs>
</svg>
