<svg width="88" height="88" viewBox="0 0 88 88" fill="none" xmlns="http://www.w3.org/2000/svg">
<rect x="0.5" y="0.5" width="87" height="87" rx="11.5" fill="url(#paint0_linear_53_1873)" fill-opacity="0.2"/>
<rect x="0.5" y="0.5" width="87" height="87" rx="11.5" stroke="#262626"/>
<path fill-rule="evenodd" clip-rule="evenodd" d="M36.5607 34.4393C37.1464 35.0251 37.1464 35.9749 36.5607 36.5607L29.1213 44L36.5607 51.4393C37.1464 52.0251 37.1464 52.9749 36.5607 53.5607C35.9749 54.1464 35.0251 54.1464 34.4393 53.5607L25.9393 45.0607C25.3536 44.4749 25.3536 43.5251 25.9393 42.9393L34.4393 34.4393C35.0251 33.8536 35.9749 33.8536 36.5607 34.4393ZM51.4393 34.4393C52.0251 33.8536 52.9749 33.8536 53.5607 34.4393L62.0607 42.9393C62.6464 43.5251 62.6464 44.4749 62.0607 45.0607L53.5607 53.5607C52.9749 54.1464 52.0251 54.1464 51.4393 53.5607C50.8536 52.9749 50.8536 52.0251 51.4393 51.4393L58.8787 44L51.4393 36.5607C50.8536 35.9749 50.8536 35.0251 51.4393 34.4393Z" fill="#9EFF00"/>
<path fill-rule="evenodd" clip-rule="evenodd" d="M46.7549 28.0218C47.5712 28.1626 48.1189 28.9385 47.9782 29.7549L42.9782 58.7549C42.8374 59.5712 42.0615 60.1189 41.2451 59.9782C40.4288 59.8374 39.8811 59.0615 40.0218 58.2451L45.0218 29.2451C45.1626 28.4288 45.9385 27.8811 46.7549 28.0218Z" fill="#9EFF00"/>
<defs>
<linearGradient id="paint0_linear_53_1873" x1="-113.5" y1="-87" x2="88" y2="88" gradientUnits="userSpaceOnUse">
<stop offset="0.224072" stop-color="#9EFF00"/>
<stop offset="0.707836" stop-color="#9EFF00" stop-opacity="0"/>
</linearGradient>
</defs>
</svg>
