<svg width="89" height="88" viewBox="0 0 89 88" fill="none" xmlns="http://www.w3.org/2000/svg">
<rect x="1.16797" y="0.5" width="87" height="87" rx="11.5" fill="url(#paint0_linear_53_1864)" fill-opacity="0.2"/>
<rect x="1.16797" y="0.5" width="87" height="87" rx="11.5" stroke="#262626"/>
<path fill-rule="evenodd" clip-rule="evenodd" d="M28.418 34C28.418 31.2386 30.6565 29 33.418 29H55.918C58.6794 29 60.918 31.2386 60.918 34V54C60.918 56.7614 58.6794 59 55.918 59H33.418C30.6565 59 28.418 56.7614 28.418 54V34ZM35.0341 35.6161C35.5222 35.128 36.3137 35.128 36.8019 35.6161L40.5519 39.3661C41.04 39.8543 41.04 40.6457 40.5519 41.1339L36.8019 44.8839C36.3137 45.372 35.5222 45.372 35.0341 44.8839C34.5459 44.3957 34.5459 43.6043 35.0341 43.1161L37.9002 40.25L35.0341 37.3839C34.5459 36.8957 34.5459 36.1043 35.0341 35.6161ZM42.168 42.75C41.4776 42.75 40.918 43.3096 40.918 44C40.918 44.6904 41.4776 45.25 42.168 45.25H47.168C47.8583 45.25 48.418 44.6904 48.418 44C48.418 43.3096 47.8583 42.75 47.168 42.75H42.168Z" fill="#9EFF00"/>
<defs>
<linearGradient id="paint0_linear_53_1864" x1="-112.832" y1="-87" x2="88.668" y2="88" gradientUnits="userSpaceOnUse">
<stop offset="0.224072" stop-color="#9EFF00"/>
<stop offset="0.707836" stop-color="#9EFF00" stop-opacity="0"/>
</linearGradient>
</defs>
</svg>
