<svg width="89" height="88" viewBox="0 0 89 88" fill="none" xmlns="http://www.w3.org/2000/svg">
<rect x="0.832031" y="0.5" width="87" height="87" rx="11.5" fill="url(#paint0_linear_53_1855)" fill-opacity="0.2"/>
<rect x="0.832031" y="0.5" width="87" height="87" rx="11.5" stroke="#262626"/>
<path d="M50.3803 42.5C51.3208 42.5 52.0345 41.6344 51.6549 40.7739C50.4145 37.9624 47.6024 36 44.332 36C44.0396 36 43.7508 36.0157 43.4664 36.0463C42.5306 36.147 42.137 37.1981 42.6076 38.0132L44.7651 41.75C45.033 42.2141 45.5282 42.5 46.0641 42.5L50.3803 42.5Z" fill="#9EFF00"/>
<path d="M40.011 39.5157C39.5403 38.7004 38.4326 38.5156 37.8759 39.2748C36.9052 40.5988 36.332 42.2325 36.332 44C36.332 45.7676 36.9053 47.4013 37.876 48.7253C38.4327 49.4845 39.5403 49.2997 40.0111 48.4844L42.1671 44.7501C42.435 44.286 42.435 43.7142 42.1671 43.2501L40.011 39.5157Z" fill="#9EFF00"/>
<path d="M42.6077 49.9868C42.1371 50.8019 42.5308 51.8531 43.4666 51.9537C43.7509 51.9843 44.0396 52 44.332 52C47.6024 52 50.4145 50.0376 51.6549 47.2261C52.0345 46.3656 51.3209 45.5 50.3804 45.5H46.0642C45.5283 45.5 45.0332 45.7859 44.7652 46.25L42.6077 49.9868Z" fill="#9EFF00"/>
<path fill-rule="evenodd" clip-rule="evenodd" d="M52.5911 32.6945L53.8809 30.4606C54.2951 29.7431 54.0493 28.8257 53.3318 28.4115C52.6144 27.9973 51.697 28.2431 51.2828 28.9606L49.9943 31.1923C48.6984 30.6185 47.299 30.2357 45.832 30.0794V27.5C45.832 26.6716 45.1605 26 44.332 26C43.5036 26 42.832 26.6716 42.832 27.5V30.0794C41.365 30.2357 39.9657 30.6185 38.6698 31.1923L37.3813 28.9606C36.9671 28.2432 36.0497 27.9973 35.3322 28.4116C34.6148 28.8258 34.369 29.7432 34.7832 30.4606L36.0729 32.6945C34.9077 33.5472 33.8792 34.5757 33.0265 35.7409L30.7922 34.4509C30.0748 34.0367 29.1574 34.2825 28.7432 35C28.329 35.7174 28.5748 36.6348 29.2922 37.049L31.5243 38.3377C30.9506 39.6337 30.5677 41.033 30.4114 42.5H27.832C27.0036 42.5 26.332 43.1716 26.332 44C26.332 44.8284 27.0036 45.5 27.832 45.5H30.4114C30.5677 46.967 30.9506 48.3663 31.5243 49.6622L29.2922 50.9509C28.5748 51.3651 28.329 52.2825 28.7432 53C29.1574 53.7174 30.0748 53.9632 30.7922 53.549L33.0265 52.259C33.8791 53.4242 34.9075 54.4526 36.0727 55.3053L34.7828 57.5394C34.3686 58.2568 34.6144 59.1742 35.3318 59.5884C36.0493 60.0027 36.9666 59.7568 37.3809 59.0394L38.6694 56.8075C39.9655 57.3814 41.3649 57.7643 42.832 57.9206V60.5C42.832 61.3284 43.5036 62 44.332 62C45.1605 62 45.832 61.3284 45.832 60.5V57.9206C47.2992 57.7643 48.6986 57.3814 49.9946 56.8076L51.2832 59.0394C51.6974 59.7569 52.6148 60.0027 53.3322 59.5885C54.0497 59.1743 54.2955 58.2569 53.8813 57.5394L52.5914 55.3053C53.7565 54.4527 54.7849 53.4243 55.6375 52.2592L57.8715 53.549C58.589 53.9632 59.5064 53.7174 59.9206 53C60.3348 52.2825 60.089 51.3651 59.3715 50.9509L57.1397 49.6624C57.7135 48.3664 58.0963 46.9671 58.2526 45.5H60.832C61.6605 45.5 62.332 44.8284 62.332 44C62.332 43.1716 61.6605 42.5 60.832 42.5H58.2526C58.0963 41.0329 57.7135 39.6336 57.1397 38.3376L59.3715 37.049C60.089 36.6348 60.3348 35.7174 59.9206 35C59.5064 34.2825 58.589 34.0367 57.8715 34.4509L55.6374 35.7408C54.7848 34.5756 53.7563 33.5472 52.5911 32.6945ZM44.332 33C42.3544 33 40.4987 33.5219 38.8951 34.4354C38.8746 34.4486 38.8536 34.4614 38.8322 34.4737C38.8116 34.4857 38.7908 34.497 38.7698 34.5079C37.1454 35.4618 35.7875 36.8208 34.835 38.4461C34.8255 38.4642 34.8156 38.4821 34.8053 38.5C34.7946 38.5185 34.7836 38.5367 34.7722 38.5547C33.8557 40.1602 33.332 42.0189 33.332 44C33.332 45.9808 33.8556 47.8394 34.7719 49.4448C34.7834 49.4629 34.7945 49.4813 34.8053 49.5C34.8157 49.518 34.8257 49.5361 34.8353 49.5543C35.7884 51.1805 37.1473 52.5401 38.773 53.494C38.7928 53.5043 38.8124 53.515 38.8318 53.5263C38.852 53.5379 38.8719 53.55 38.8913 53.5625C40.4958 54.4773 42.3529 55 44.332 55C46.3115 55 48.1688 54.4772 49.7734 53.5621C49.7927 53.5498 49.8123 53.5378 49.8322 53.5263C49.8515 53.5152 49.8709 53.5046 49.8904 53.4944C51.5147 52.5414 52.8727 51.1835 53.8259 49.5593C53.8362 49.5394 53.8471 49.5196 53.8584 49.5C53.8702 49.4796 53.8823 49.4596 53.8949 49.44C54.8095 47.8357 55.332 45.9789 55.332 44C55.332 42.0209 54.8094 40.1639 53.8946 38.5595C53.8821 38.54 53.8701 38.5202 53.8584 38.5C53.8472 38.4805 53.8364 38.4609 53.8261 38.4411C52.8736 36.8178 51.5166 35.4605 49.8936 34.5075C49.8729 34.4968 49.8523 34.4855 49.8318 34.4737C49.8107 34.4615 49.7899 34.4488 49.7696 34.4358C48.1658 33.522 46.3099 33 44.332 33Z" fill="#9EFF00"/>
<defs>
<linearGradient id="paint0_linear_53_1855" x1="-113.168" y1="-87" x2="88.332" y2="88" gradientUnits="userSpaceOnUse">
<stop offset="0.224072" stop-color="#9EFF00"/>
<stop offset="0.707836" stop-color="#9EFF00" stop-opacity="0"/>
</linearGradient>
</defs>
</svg>
