<svg width="88" height="88" viewBox="0 0 88 88" fill="none" xmlns="http://www.w3.org/2000/svg">
<rect x="0.5" y="0.5" width="87" height="87" rx="9.5" fill="url(#paint0_linear_29_3192)"/>
<rect x="0.5" y="0.5" width="87" height="87" rx="9.5" fill="url(#paint1_linear_29_3192)" fill-opacity="0.2"/>
<rect x="0.5" y="0.5" width="87" height="87" rx="9.5" stroke="url(#paint2_linear_29_3192)"/>
<path d="M42.75 32.8949C42.75 32.303 42.4399 31.7679 42.0813 31.297C41.7132 30.8135 41.5 30.24 41.5 29.625C41.5 27.8991 43.1789 26.5 45.25 26.5C47.3211 26.5 49 27.8991 49 29.625C49 30.24 48.7868 30.8135 48.4187 31.297C48.0601 31.7679 47.75 32.303 47.75 32.8949C47.75 33.4488 48.2128 33.891 48.7658 33.858C51.9501 33.668 55.0831 33.2888 58.1536 32.7316C58.4915 32.6703 58.8398 32.7507 59.1166 32.954C59.3935 33.1573 59.5744 33.4655 59.6171 33.8063C59.9905 36.7887 60.2021 39.821 60.2431 42.8941C60.2513 43.5047 59.7556 43.9998 59.1449 44C58.553 44 58.0179 43.6899 57.547 43.3313C57.0635 42.9632 56.49 42.75 55.875 42.75C54.1491 42.75 52.75 44.4289 52.75 46.5C52.75 48.5711 54.1491 50.25 55.875 50.25C56.49 50.25 57.0635 50.0368 57.547 49.6687C58.0179 49.3101 58.553 49 59.1449 49C59.6623 49 60.0731 49.4361 60.0357 49.9521C59.8379 52.6831 59.5051 55.3769 59.0439 58.0269C58.9535 58.5466 58.5465 58.9536 58.0267 59.044C54.9949 59.5717 51.9057 59.9312 48.7691 60.1128C48.2141 60.1449 47.75 59.7008 47.75 59.1449C47.75 58.553 48.0601 58.0179 48.4187 57.547C48.7868 57.0635 49 56.49 49 55.875C49 54.1491 47.3211 52.75 45.25 52.75C43.1789 52.75 41.5 54.1491 41.5 55.875C41.5 56.49 41.7132 57.0635 42.0813 57.547C42.4399 58.0179 42.75 58.553 42.75 59.1449C42.75 59.7475 42.2566 60.2342 41.6542 60.2171C39.005 60.142 36.3873 59.94 33.8069 59.6169C33.4661 59.5743 33.1579 59.3933 32.9546 59.1164C32.7513 58.8396 32.6709 58.4913 32.7322 58.1534C33.2204 55.4635 33.5719 52.7256 33.7793 49.9472C33.8176 49.4342 33.4094 49 32.8949 49C32.303 49 31.7679 49.3101 31.297 49.6687C30.8135 50.0368 30.24 50.25 29.625 50.25C27.8991 50.25 26.5 48.5711 26.5 46.5C26.5 44.4289 27.8991 42.75 29.625 42.75C30.24 42.75 30.8135 42.9632 31.297 43.3313C31.7679 43.6899 32.303 44 32.8949 44C33.5055 44 34.0013 43.505 33.9929 42.8944C33.9556 40.1807 33.781 37.5004 33.476 34.8605C33.4322 34.4813 33.564 34.103 33.8338 33.8331C34.1037 33.5632 34.4821 33.4314 34.8612 33.4753C37.0984 33.7338 39.3643 33.8985 41.6551 33.9655C42.2569 33.9831 42.75 33.497 42.75 32.8949Z" fill="#9EFF00"/>
<defs>
<linearGradient id="paint0_linear_29_3192" x1="44" y1="0" x2="44" y2="88" gradientUnits="userSpaceOnUse">
<stop stop-color="#242424"/>
<stop offset="1" stop-color="#242424" stop-opacity="0"/>
</linearGradient>
<linearGradient id="paint1_linear_29_3192" x1="204" y1="-87.5" x2="8.27014e-06" y2="88" gradientUnits="userSpaceOnUse">
<stop offset="0.224072" stop-color="#9EFF00"/>
<stop offset="0.687143" stop-color="#9EFF00" stop-opacity="0"/>
</linearGradient>
<linearGradient id="paint2_linear_29_3192" x1="44" y1="0" x2="44" y2="88" gradientUnits="userSpaceOnUse">
<stop stop-color="#2E2E2E"/>
<stop offset="1" stop-color="#2E2E2E" stop-opacity="0"/>
</linearGradient>
</defs>
</svg>
