<svg width="80" height="80" viewBox="0 0 80 80" fill="none" xmlns="http://www.w3.org/2000/svg">
<rect x="0.5" y="0.5" width="79" height="79" rx="11.5" fill="url(#paint0_linear_37_402)"/>
<rect x="0.5" y="0.5" width="79" height="79" rx="11.5" stroke="url(#paint1_linear_37_402)"/>
<path d="M32.5431 51.308C30.5831 51.308 29.0245 50.7573 27.8671 49.656C26.7285 48.536 26.1591 47.0333 26.1591 45.148V37.252C26.1591 35.3853 26.7285 33.9107 27.8671 32.828C29.0245 31.7267 30.5831 31.176 32.5431 31.176C34.5031 31.176 36.0618 31.7267 37.2191 32.828C38.3951 33.9107 38.9831 35.3853 38.9831 37.252V45.148C38.9831 47.0333 38.3951 48.536 37.2191 49.656C36.0618 50.7573 34.5031 51.308 32.5431 51.308ZM32.5431 48.48C33.5138 48.48 34.2885 48.2 34.8671 47.64C35.4458 47.0613 35.7351 46.2867 35.7351 45.316V37.14C35.7351 36.1693 35.4458 35.404 34.8671 34.844C34.2885 34.2653 33.5138 33.976 32.5431 33.976C31.5911 33.976 30.8258 34.2653 30.2471 34.844C29.6871 35.404 29.4071 36.1693 29.4071 37.14V45.316C29.4071 46.2867 29.6871 47.0613 30.2471 47.64C30.8258 48.2 31.5911 48.48 32.5431 48.48ZM53.9172 42.208C54.1599 43.048 54.2812 43.916 54.2812 44.812C54.2812 45.6893 54.1599 46.52 53.9172 47.304C53.5252 48.4987 52.8065 49.4507 51.7612 50.16C50.7159 50.8507 49.4932 51.196 48.0932 51.196C46.7119 51.196 45.5079 50.86 44.4812 50.188C43.4545 49.4973 42.7359 48.5733 42.3252 47.416C42.1759 47.0053 42.0545 46.5387 41.9612 46.016V45.96C41.9612 45.7547 42.0732 45.652 42.2972 45.652H44.9572C45.1439 45.652 45.2652 45.7547 45.3212 45.96C45.3399 46.072 45.3865 46.24 45.4612 46.464C45.6665 47.08 45.9932 47.556 46.4412 47.892C46.8892 48.228 47.4305 48.396 48.0652 48.396C48.7185 48.396 49.2785 48.2187 49.7452 47.864C50.2119 47.4907 50.5385 46.9867 50.7252 46.352C50.8932 45.904 50.9772 45.3907 50.9772 44.812C50.9772 44.2707 50.9025 43.7387 50.7532 43.216C50.6225 42.6 50.3239 42.1333 49.8572 41.816C49.3905 41.48 48.8212 41.312 48.1492 41.312C47.5145 41.312 46.9359 41.4613 46.4132 41.76C45.9092 42.04 45.5825 42.4133 45.4332 42.88C45.3585 43.0667 45.2279 43.16 45.0412 43.16H42.3252C42.2319 43.16 42.1479 43.132 42.0732 43.076C42.0172 43.0013 41.9892 42.9173 41.9892 42.824V31.736C41.9892 31.6427 42.0172 31.568 42.0732 31.512C42.1479 31.4373 42.2319 31.4 42.3252 31.4H53.2172C53.3105 31.4 53.3852 31.4373 53.4412 31.512C53.5159 31.568 53.5532 31.6427 53.5532 31.736V33.864C53.5532 33.9573 53.5159 34.0413 53.4412 34.116C53.3852 34.172 53.3105 34.2 53.2172 34.2H45.3772C45.2839 34.2 45.2372 34.2467 45.2372 34.34L45.2092 39.38C45.2092 39.4547 45.2279 39.5013 45.2652 39.52C45.3025 39.52 45.3399 39.5013 45.3772 39.464C46.2545 38.8107 47.3092 38.484 48.5412 38.484C49.8479 38.484 50.9772 38.82 51.9292 39.492C52.8999 40.1453 53.5625 41.0507 53.9172 42.208Z" fill="white"/>
<defs>
<linearGradient id="paint0_linear_37_402" x1="40" y1="0" x2="40" y2="80" gradientUnits="userSpaceOnUse">
<stop stop-color="#242424"/>
<stop offset="1" stop-color="#242424" stop-opacity="0"/>
</linearGradient>
<linearGradient id="paint1_linear_37_402" x1="40" y1="0" x2="40" y2="80" gradientUnits="userSpaceOnUse">
<stop stop-color="#2E2E2E"/>
<stop offset="1" stop-color="#2E2E2E" stop-opacity="0"/>
</linearGradient>
</defs>
</svg>
