<svg width="80" height="80" viewBox="0 0 80 80" fill="none" xmlns="http://www.w3.org/2000/svg">
<rect x="0.5" y="0.5" width="79" height="79" rx="11.5" fill="url(#paint0_linear_37_366)"/>
<rect x="0.5" y="0.5" width="79" height="79" rx="11.5" stroke="url(#paint1_linear_37_366)"/>
<path d="M31.7775 51.308C29.8175 51.308 28.2588 50.7573 27.1015 49.656C25.9628 48.536 25.3935 47.0333 25.3935 45.148V37.252C25.3935 35.3853 25.9628 33.9107 27.1015 32.828C28.2588 31.7267 29.8175 31.176 31.7775 31.176C33.7375 31.176 35.2962 31.7267 36.4535 32.828C37.6295 33.9107 38.2175 35.3853 38.2175 37.252V45.148C38.2175 47.0333 37.6295 48.536 36.4535 49.656C35.2962 50.7573 33.7375 51.308 31.7775 51.308ZM31.7775 48.48C32.7482 48.48 33.5228 48.2 34.1015 47.64C34.6802 47.0613 34.9695 46.2867 34.9695 45.316V37.14C34.9695 36.1693 34.6802 35.404 34.1015 34.844C33.5228 34.2653 32.7482 33.976 31.7775 33.976C30.8255 33.976 30.0602 34.2653 29.4815 34.844C28.9215 35.404 28.6415 36.1693 28.6415 37.14V45.316C28.6415 46.2867 28.9215 47.0613 29.4815 47.64C30.0602 48.2 30.8255 48.48 31.7775 48.48ZM54.3836 42.936C54.4769 42.936 54.5516 42.9733 54.6076 43.048C54.6822 43.104 54.7196 43.1787 54.7196 43.272V45.512C54.7196 45.6053 54.6822 45.6893 54.6076 45.764C54.5516 45.82 54.4769 45.848 54.3836 45.848H53.2076C53.1142 45.848 53.0676 45.8947 53.0676 45.988V50.664C53.0676 50.7573 53.0302 50.8413 52.9556 50.916C52.8996 50.972 52.8249 51 52.7316 51H50.1556C50.0622 51 49.9782 50.972 49.9036 50.916C49.8476 50.8413 49.8196 50.7573 49.8196 50.664V45.988C49.8196 45.8947 49.7729 45.848 49.6796 45.848H41.1676C41.0742 45.848 40.9902 45.82 40.9156 45.764C40.8596 45.6893 40.8316 45.6053 40.8316 45.512V43.72C40.8316 43.608 40.8596 43.468 40.9156 43.3L46.2076 31.652C46.2822 31.484 46.4129 31.4 46.5996 31.4H49.3436C49.4742 31.4 49.5582 31.4373 49.5956 31.512C49.6516 31.568 49.6516 31.6613 49.5956 31.792L44.6116 42.768C44.5929 42.8053 44.5929 42.8427 44.6116 42.88C44.6302 42.9173 44.6582 42.936 44.6956 42.936H49.6796C49.7729 42.936 49.8196 42.8893 49.8196 42.796V38.988C49.8196 38.8947 49.8476 38.82 49.9036 38.764C49.9782 38.6893 50.0622 38.652 50.1556 38.652H52.7316C52.8249 38.652 52.8996 38.6893 52.9556 38.764C53.0302 38.82 53.0676 38.8947 53.0676 38.988V42.796C53.0676 42.8893 53.1142 42.936 53.2076 42.936H54.3836Z" fill="white"/>
<defs>
<linearGradient id="paint0_linear_37_366" x1="40" y1="0" x2="40" y2="80" gradientUnits="userSpaceOnUse">
<stop stop-color="#242424"/>
<stop offset="1" stop-color="#242424" stop-opacity="0"/>
</linearGradient>
<linearGradient id="paint1_linear_37_366" x1="40" y1="0" x2="40" y2="80" gradientUnits="userSpaceOnUse">
<stop stop-color="#2E2E2E"/>
<stop offset="1" stop-color="#2E2E2E" stop-opacity="0"/>
</linearGradient>
</defs>
</svg>
