<svg width="88" height="88" viewBox="0 0 88 88" fill="none" xmlns="http://www.w3.org/2000/svg">
<rect x="0.5" y="0.5" width="87" height="87" rx="11.5" fill="url(#paint0_linear_44_5850)" fill-opacity="0.2"/>
<rect x="0.5" y="0.5" width="87" height="87" rx="11.5" stroke="#262626"/>
<path d="M38.3773 56.8476H52.7998C55.5947 56.8476 56.9922 55.4366 56.9922 52.5873V36.1297C56.9922 33.2941 55.5947 31.8695 52.7998 31.8695H39.8155L42.0406 34.0539H52.6777C54.0887 34.0539 54.8078 34.8001 54.8078 36.1569V52.5602C54.8078 53.917 54.0887 54.6632 52.6912 54.6632H38.4858C37.0884 54.6632 36.3557 53.917 36.3557 52.5602V42.8729H34.1713V52.5873C34.1713 55.4366 35.5823 56.8476 38.3773 56.8476ZM40.4396 39.8745H50.4255C50.9003 39.8745 51.2666 39.5081 51.2666 39.0332C51.2666 38.572 50.9003 38.2056 50.4255 38.2056H40.4396C39.9376 38.2056 39.5848 38.572 39.5848 39.0332C39.5848 39.5081 39.9376 39.8745 40.4396 39.8745ZM40.4396 45.193H50.4255C50.9003 45.193 51.2666 44.8131 51.2666 44.3382C51.2666 43.8769 50.9003 43.5241 50.4255 43.5241H40.4396C39.9376 43.5241 39.5848 43.8769 39.5848 44.3382C39.5848 44.8131 39.9376 45.193 40.4396 45.193ZM40.4396 50.4979H50.4255C50.9003 50.4979 51.2666 50.1452 51.2666 49.6839C51.2666 49.2091 50.9003 48.8291 50.4255 48.8291H40.4396C39.9376 48.8291 39.5848 49.2091 39.5848 49.6839C39.5848 50.1452 39.9376 50.4979 40.4396 50.4979ZM30.2502 37.3644C30.2366 37.88 30.8608 38.0564 31.2 37.7172L33.2758 35.6413L35.5959 41.3668C35.7044 41.6247 35.9758 41.7468 36.22 41.6518L37.5768 41.1091C37.8074 41.0005 37.9024 40.7156 37.7803 40.4579L35.3517 34.8272L38.2687 34.7051C38.7843 34.678 39.0421 34.1896 38.6758 33.7961L31.2542 26.171C30.915 25.8318 30.3859 26.0218 30.3723 26.5238L30.2502 37.3644Z" fill="#9EFF00"/>
<defs>
<linearGradient id="paint0_linear_44_5850" x1="-113.5" y1="-87" x2="88" y2="88" gradientUnits="userSpaceOnUse">
<stop offset="0.224072" stop-color="#9EFF00"/>
<stop offset="0.707836" stop-color="#9EFF00" stop-opacity="0"/>
</linearGradient>
</defs>
</svg>
