<svg width="80" height="80" viewBox="0 0 80 80" fill="none" xmlns="http://www.w3.org/2000/svg">
<rect x="0.5" y="0.5" width="79" height="79" rx="11.5" fill="url(#paint0_linear_37_263)"/>
<rect x="0.5" y="0.5" width="79" height="79" rx="11.5" stroke="url(#paint1_linear_37_263)"/>
<path d="M35.2638 51.308C33.3038 51.308 31.7452 50.7573 30.5878 49.656C29.4492 48.536 28.8798 47.0333 28.8798 45.148V37.252C28.8798 35.3853 29.4492 33.9107 30.5878 32.828C31.7452 31.7267 33.3038 31.176 35.2638 31.176C37.2238 31.176 38.7825 31.7267 39.9398 32.828C41.1158 33.9107 41.7038 35.3853 41.7038 37.252V45.148C41.7038 47.0333 41.1158 48.536 39.9398 49.656C38.7825 50.7573 37.2238 51.308 35.2638 51.308ZM35.2638 48.48C36.2345 48.48 37.0092 48.2 37.5878 47.64C38.1665 47.0613 38.4558 46.2867 38.4558 45.316V37.14C38.4558 36.1693 38.1665 35.404 37.5878 34.844C37.0092 34.2653 36.2345 33.976 35.2638 33.976C34.3118 33.976 33.5465 34.2653 32.9678 34.844C32.4078 35.404 32.1278 36.1693 32.1278 37.14V45.316C32.1278 46.2867 32.4078 47.0613 32.9678 47.64C33.5465 48.2 34.3118 48.48 35.2638 48.48ZM47.2691 31.484C47.4184 31.428 47.5584 31.4 47.6891 31.4H50.3771C50.4704 31.4 50.5451 31.4373 50.6011 31.512C50.6757 31.568 50.7131 31.6427 50.7131 31.736V50.664C50.7131 50.7573 50.6757 50.8413 50.6011 50.916C50.5451 50.972 50.4704 51 50.3771 51H47.8011C47.7077 51 47.6237 50.972 47.5491 50.916C47.4931 50.8413 47.4651 50.7573 47.4651 50.664V34.76C47.4651 34.7227 47.4464 34.6947 47.4091 34.676C47.3717 34.6387 47.3344 34.6293 47.2971 34.648L44.4971 35.516C44.4597 35.5347 44.4131 35.544 44.3571 35.544C44.2824 35.544 44.2171 35.516 44.1611 35.46C44.1237 35.404 44.1051 35.3293 44.1051 35.236L44.0211 33.388C44.0211 33.2013 44.0957 33.0707 44.2451 32.996L47.2691 31.484Z" fill="#9EFF00"/>
<defs>
<linearGradient id="paint0_linear_37_263" x1="40" y1="0" x2="40" y2="80" gradientUnits="userSpaceOnUse">
<stop stop-color="#242424"/>
<stop offset="1" stop-color="#242424" stop-opacity="0"/>
</linearGradient>
<linearGradient id="paint1_linear_37_263" x1="40" y1="0" x2="40" y2="80" gradientUnits="userSpaceOnUse">
<stop stop-color="#2E2E2E"/>
<stop offset="1" stop-color="#2E2E2E" stop-opacity="0"/>
</linearGradient>
</defs>
</svg>
