<svg width="18" height="18" viewBox="0 0 18 18" fill="none" xmlns="http://www.w3.org/2000/svg">
<path fill-rule="evenodd" clip-rule="evenodd" d="M0.25 2.75C0.25 1.36929 1.36929 0.25 2.75 0.25H3.89302C4.61 0.25 5.23498 0.737964 5.40887 1.43354L6.33037 5.11952C6.48284 5.72942 6.25495 6.37129 5.75202 6.74849L4.674 7.557C4.56206 7.64096 4.53772 7.7639 4.56917 7.84974C5.51542 10.4329 7.5671 12.4846 10.1503 13.4308C10.2361 13.4623 10.359 13.4379 10.443 13.326L11.2515 12.248C11.6287 11.7451 12.2706 11.5172 12.8805 11.6696L16.5665 12.5911C17.262 12.765 17.75 13.39 17.75 14.107V15.25C17.75 16.6307 16.6307 17.75 15.25 17.75H13.375C6.12626 17.75 0.25 11.8737 0.25 4.625V2.75Z" fill="#9EFF00"/>
</svg>
