<svg width="88" height="88" viewBox="0 0 88 88" fill="none" xmlns="http://www.w3.org/2000/svg">
<rect x="0.5" y="0.5" width="87" height="87" rx="11.5" fill="url(#paint0_linear_49_6112)" fill-opacity="0.2"/>
<rect x="0.5" y="0.5" width="87" height="87" rx="11.5" stroke="#262626"/>
<g clip-path="url(#clip0_49_6112)">
<path d="M24 44.1246C24 46.9048 25.9625 48.4313 28.1704 48.4313C29.0972 48.4313 29.7922 48.1723 30.6236 47.6544C31.4004 47.1774 31.9592 47.4635 31.9592 48.1314V53.1741C31.9592 55.8589 33.3766 57.2355 36.0887 57.2355H39.7276C40.3818 57.2355 40.668 56.6902 40.2047 55.9135C39.6732 55.0821 39.4142 54.3871 39.4142 53.4603C39.4142 51.2524 40.9542 49.2899 43.7346 49.2899C46.5148 49.2899 48.0412 51.2524 48.0412 53.4603C48.0412 54.3871 47.7822 55.0821 47.2644 55.9135C46.801 56.6902 47.0735 57.2355 47.7414 57.2355H51.3803C54.0924 57.2355 55.5098 55.8589 55.5098 53.1741V48.1314C55.5098 47.4635 56.0686 47.1774 56.8318 47.6544C57.6767 48.1723 58.3719 48.4313 59.2849 48.4313C61.5065 48.4313 63.469 46.9048 63.469 44.1246C63.469 41.3306 61.5065 39.8042 59.2849 39.8042C58.3719 39.8042 57.6767 40.0632 56.8318 40.581C56.0686 41.0581 55.5098 40.7718 55.5098 40.104V35.0614C55.5098 32.3901 54.0924 31 51.3803 31H47.7414C47.0735 31 46.801 31.5588 47.2644 32.3356C47.7822 33.167 48.0412 33.8621 48.0412 34.7888C48.0412 36.9967 46.5148 38.9592 43.7346 38.9592C40.9542 38.9592 39.4142 36.9967 39.4142 34.7888C39.4142 33.8621 39.6732 33.167 40.2047 32.3356C40.668 31.5588 40.3818 31 39.7276 31H36.0887C33.3766 31 31.9592 32.3901 31.9592 35.0614V40.104C31.9592 40.7718 31.4004 41.0581 30.6236 40.581C29.7922 40.0632 29.0972 39.8042 28.1704 39.8042C25.9625 39.8042 24 41.3306 24 44.1246Z" fill="#9EFF00"/>
</g>
<defs>
<linearGradient id="paint0_linear_49_6112" x1="-113.5" y1="-87" x2="88" y2="88" gradientUnits="userSpaceOnUse">
<stop offset="0.224072" stop-color="#9EFF00"/>
<stop offset="0.707836" stop-color="#9EFF00" stop-opacity="0"/>
</linearGradient>
<clipPath id="clip0_49_6112">
<rect width="40" height="40" fill="white" transform="translate(24 24)"/>
</clipPath>
</defs>
</svg>
