<svg width="89" height="88" viewBox="0 0 89 88" fill="none" xmlns="http://www.w3.org/2000/svg">
<rect x="1.25" y="0.5" width="87" height="87" rx="11.5" fill="url(#paint0_linear_49_6091)" fill-opacity="0.2"/>
<rect x="1.25" y="0.5" width="87" height="87" rx="11.5" stroke="#262626"/>
<path d="M59.75 34.625C59.75 39.1123 53.0343 42.75 44.75 42.75C36.4657 42.75 29.75 39.1123 29.75 34.625C29.75 30.1377 36.4657 26.5 44.75 26.5C53.0343 26.5 59.75 30.1377 59.75 34.625Z" fill="#9EFF00"/>
<path d="M44.75 45.25C49.2253 45.25 53.4009 44.2728 56.5473 42.5685C57.6973 41.9456 58.7913 41.1739 59.7078 40.2612C59.7358 40.4638 59.75 40.6685 59.75 40.875C59.75 45.3623 53.0343 49 44.75 49C36.4657 49 29.75 45.3623 29.75 40.875C29.75 40.6685 29.7642 40.4638 29.7922 40.2612C30.7087 41.1739 31.8027 41.9456 32.9527 42.5685C36.0991 44.2728 40.2747 45.25 44.75 45.25Z" fill="#9EFF00"/>
<path d="M44.75 51.5C49.2253 51.5 53.4009 50.5228 56.5473 48.8185C57.6973 48.1956 58.7913 47.4239 59.7078 46.5112C59.7358 46.7138 59.75 46.9185 59.75 47.125C59.75 51.6123 53.0343 55.25 44.75 55.25C36.4657 55.25 29.75 51.6123 29.75 47.125C29.75 46.9185 29.7642 46.7138 29.7922 46.5112C30.7087 47.4239 31.8027 48.1956 32.9527 48.8185C36.0991 50.5228 40.2747 51.5 44.75 51.5Z" fill="#9EFF00"/>
<path d="M44.75 57.75C49.2253 57.75 53.4009 56.7728 56.5473 55.0685C57.6973 54.4456 58.7913 53.6739 59.7078 52.7612C59.7358 52.9638 59.75 53.1685 59.75 53.375C59.75 57.8623 53.0343 61.5 44.75 61.5C36.4657 61.5 29.75 57.8623 29.75 53.375C29.75 53.1685 29.7642 52.9638 29.7922 52.7612C30.7087 53.6739 31.8027 54.4456 32.9527 55.0685C36.0991 56.7728 40.2747 57.75 44.75 57.75Z" fill="#9EFF00"/>
<defs>
<linearGradient id="paint0_linear_49_6091" x1="-112.75" y1="-87" x2="88.75" y2="88" gradientUnits="userSpaceOnUse">
<stop offset="0.224072" stop-color="#9EFF00"/>
<stop offset="0.707836" stop-color="#9EFF00" stop-opacity="0"/>
</linearGradient>
</defs>
</svg>
