<svg width="89" height="88" viewBox="0 0 89 88" fill="none" xmlns="http://www.w3.org/2000/svg">
<rect x="1.25" y="0.5" width="87" height="87" rx="11.5" fill="url(#paint0_linear_49_6064)" fill-opacity="0.2"/>
<rect x="1.25" y="0.5" width="87" height="87" rx="11.5" stroke="#262626"/>
<path d="M55.375 27.75C53.6491 27.75 52.25 29.1491 52.25 30.875V57.125C52.25 58.8509 53.6491 60.25 55.375 60.25H56.625C58.3509 60.25 59.75 58.8509 59.75 57.125V30.875C59.75 29.1491 58.3509 27.75 56.625 27.75H55.375Z" fill="#9EFF00"/>
<path d="M41 38.375C41 36.6491 42.3991 35.25 44.125 35.25H45.375C47.1009 35.25 48.5 36.6491 48.5 38.375V57.125C48.5 58.8509 47.1009 60.25 45.375 60.25H44.125C42.3991 60.25 41 58.8509 41 57.125V38.375Z" fill="#9EFF00"/>
<path d="M29.75 45.875C29.75 44.1491 31.1491 42.75 32.875 42.75H34.125C35.8509 42.75 37.25 44.1491 37.25 45.875V57.125C37.25 58.8509 35.8509 60.25 34.125 60.25H32.875C31.1491 60.25 29.75 58.8509 29.75 57.125V45.875Z" fill="#9EFF00"/>
<defs>
<linearGradient id="paint0_linear_49_6064" x1="-112.75" y1="-87" x2="88.75" y2="88" gradientUnits="userSpaceOnUse">
<stop offset="0.224072" stop-color="#9EFF00"/>
<stop offset="0.707836" stop-color="#9EFF00" stop-opacity="0"/>
</linearGradient>
</defs>
</svg>
