<svg width="89" height="88" viewBox="0 0 89 88" fill="none" xmlns="http://www.w3.org/2000/svg">
<rect x="0.75" y="0.5" width="87" height="87" rx="11.5" fill="url(#paint0_linear_49_6076)" fill-opacity="0.2"/>
<rect x="0.75" y="0.5" width="87" height="87" rx="11.5" stroke="#262626"/>
<path d="M54.875 27.75C53.1491 27.75 51.75 29.1491 51.75 30.875V57.125C51.75 58.8509 53.1491 60.25 54.875 60.25H56.125C57.8509 60.25 59.25 58.8509 59.25 57.125V30.875C59.25 29.1491 57.8509 27.75 56.125 27.75H54.875Z" fill="#9EFF00"/>
<path d="M40.5 38.375C40.5 36.6491 41.8991 35.25 43.625 35.25H44.875C46.6009 35.25 48 36.6491 48 38.375V57.125C48 58.8509 46.6009 60.25 44.875 60.25H43.625C41.8991 60.25 40.5 58.8509 40.5 57.125V38.375Z" fill="#9EFF00"/>
<path d="M29.25 45.875C29.25 44.1491 30.6491 42.75 32.375 42.75H33.625C35.3509 42.75 36.75 44.1491 36.75 45.875V57.125C36.75 58.8509 35.3509 60.25 33.625 60.25H32.375C30.6491 60.25 29.25 58.8509 29.25 57.125V45.875Z" fill="#9EFF00"/>
<defs>
<linearGradient id="paint0_linear_49_6076" x1="-113.25" y1="-87" x2="88.25" y2="88" gradientUnits="userSpaceOnUse">
<stop offset="0.224072" stop-color="#9EFF00"/>
<stop offset="0.707836" stop-color="#9EFF00" stop-opacity="0"/>
</linearGradient>
</defs>
</svg>
