<svg width="88" height="88" viewBox="0 0 88 88" fill="none" xmlns="http://www.w3.org/2000/svg">
<rect x="0.5" y="0.5" width="87" height="87" rx="11.5" fill="url(#paint0_linear_53_1886)" fill-opacity="0.2"/>
<rect x="0.5" y="0.5" width="87" height="87" rx="11.5" stroke="#262626"/>
<path fill-rule="evenodd" clip-rule="evenodd" d="M36.5 32.75C36.5 29.9886 38.7386 27.75 41.5 27.75H46.5C49.2614 27.75 51.5 29.9886 51.5 32.75V33.0916C53.0541 33.2339 54.5957 33.4199 56.1234 33.6485C58.5468 34.0111 60.25 36.1194 60.25 38.5095V43.5648C60.25 45.5834 59.0273 47.4854 57.0229 48.1518C52.9277 49.5133 48.5486 50.25 44.0001 50.25C39.4514 50.25 35.0724 49.5133 30.9771 48.1518C28.9727 47.4854 27.75 45.5833 27.75 43.5648V38.5095C27.75 36.1194 29.4532 34.0111 31.8766 33.6485C33.4043 33.4199 34.9459 33.2339 36.5 33.0916V32.75ZM49 32.75V32.9014C47.3461 32.8009 45.6789 32.75 44 32.75C42.3211 32.75 40.6539 32.8009 39 32.9014V32.75C39 31.3693 40.1193 30.25 41.5 30.25H46.5C47.8807 30.25 49 31.3693 49 32.75ZM44 46.5C44.6904 46.5 45.25 45.9404 45.25 45.25C45.25 44.5596 44.6904 44 44 44C43.3096 44 42.75 44.5596 42.75 45.25C42.75 45.9404 43.3096 46.5 44 46.5Z" fill="#9EFF00"/>
<path d="M29 54.6666V50.0065C29.3717 50.2104 29.7683 50.3844 30.1884 50.5241C34.5348 51.9691 39.18 52.75 44.0001 52.75C48.8201 52.75 53.4652 51.9691 57.8116 50.5241C58.2317 50.3845 58.6283 50.2105 59 50.0066V54.6666C59 57.0865 57.2546 59.2125 54.7948 59.5391C51.2626 60.008 47.6592 60.25 44 60.25C40.3408 60.25 36.7374 60.008 33.2052 59.5391C30.7454 59.2125 29 57.0865 29 54.6666Z" fill="#9EFF00"/>
<defs>
<linearGradient id="paint0_linear_53_1886" x1="-113.5" y1="-87" x2="88" y2="88" gradientUnits="userSpaceOnUse">
<stop offset="0.224072" stop-color="#9EFF00"/>
<stop offset="0.707836" stop-color="#9EFF00" stop-opacity="0"/>
</linearGradient>
</defs>
</svg>
