<svg width="89" height="88" viewBox="0 0 89 88" fill="none" xmlns="http://www.w3.org/2000/svg">
<rect x="1" y="0.5" width="87" height="87" rx="11.5" fill="url(#paint0_linear_49_6070)" fill-opacity="0.2"/>
<rect x="1" y="0.5" width="87" height="87" rx="11.5" stroke="#262626"/>
<path d="M31.0607 28.4393C30.4749 27.8536 29.5251 27.8536 28.9393 28.4393C28.3536 29.0251 28.3536 29.9749 28.9393 30.5607L35.3787 37H30C29.1716 37 28.5 37.6716 28.5 38.5C28.5 39.3284 29.1716 40 30 40H39C39.8284 40 40.5 39.3284 40.5 38.5V29.5C40.5 28.6716 39.8284 28 39 28C38.1716 28 37.5 28.6716 37.5 29.5V34.8787L31.0607 28.4393Z" fill="#9EFF00"/>
<path d="M51.5 29.5C51.5 28.6716 50.8284 28 50 28C49.1716 28 48.5 28.6716 48.5 29.5V38.5C48.5 39.3284 49.1716 40 50 40H59C59.8284 40 60.5 39.3284 60.5 38.5C60.5 37.6716 59.8284 37 59 37H53.6213L60.0607 30.5607C60.6464 29.9749 60.6464 29.0251 60.0607 28.4393C59.4749 27.8536 58.5251 27.8536 57.9393 28.4393L51.5 34.8787V29.5Z" fill="#9EFF00"/>
<path d="M31.0607 59.5607L37.5 53.1213V58.5C37.5 59.3284 38.1716 60 39 60C39.8284 60 40.5 59.3284 40.5 58.5V49.5C40.5 48.6716 39.8284 48 39 48H30C29.1716 48 28.5 48.6716 28.5 49.5C28.5 50.3284 29.1716 51 30 51H35.3787L28.9393 57.4393C28.3536 58.0251 28.3536 58.9749 28.9393 59.5607C29.5251 60.1464 30.4749 60.1464 31.0607 59.5607Z" fill="#9EFF00"/>
<path d="M51.5 53.1213L57.9393 59.5607C58.5251 60.1464 59.4749 60.1464 60.0607 59.5607C60.6464 58.9749 60.6464 58.0251 60.0607 57.4393L53.6213 51H59C59.8284 51 60.5 50.3284 60.5 49.5C60.5 48.6716 59.8284 48 59 48H50C49.1716 48 48.5 48.6716 48.5 49.5V58.5C48.5 59.3284 49.1716 60 50 60C50.8284 60 51.5 59.3284 51.5 58.5V53.1213Z" fill="#9EFF00"/>
<defs>
<linearGradient id="paint0_linear_49_6070" x1="-113" y1="-87" x2="88.5" y2="88" gradientUnits="userSpaceOnUse">
<stop offset="0.224072" stop-color="#9EFF00"/>
<stop offset="0.707836" stop-color="#9EFF00" stop-opacity="0"/>
</linearGradient>
</defs>
</svg>
