<svg width="89" height="88" viewBox="0 0 89 88" fill="none" xmlns="http://www.w3.org/2000/svg">
<rect x="1.25" y="0.5" width="87" height="87" rx="11.5" fill="url(#paint0_linear_49_6118)" fill-opacity="0.2"/>
<rect x="1.25" y="0.5" width="87" height="87" rx="11.5" stroke="#262626"/>
<path d="M58.2876 47.5155V34.7087C58.2876 32.9509 57.5342 32.3817 56.1112 31.7957C54.1357 30.9922 47.7574 28.5647 45.782 27.9955C45.3299 27.8783 44.8444 27.7444 44.3757 27.7444C43.907 27.7444 43.4215 27.8448 42.9862 27.9955C40.994 28.6819 34.6157 30.9754 32.6402 31.7957C31.234 32.3984 30.4639 32.9509 30.4639 34.7087V47.5155C30.4639 53.6261 33.7284 55.8861 43.254 61.2265C43.6893 61.461 44.1078 61.5614 44.3757 61.5614C44.6436 61.5614 45.0789 61.461 45.4973 61.2265C55.0063 55.8694 58.2876 53.6261 58.2876 47.5155ZM44.0241 58.4643C43.8232 58.414 43.6056 58.2968 43.3378 58.1294C35.6201 53.4253 33.1257 52.0691 33.1257 46.8961V35.2277C33.1257 34.6585 33.2261 34.4241 33.6949 34.2567C36.2898 33.3694 41.1782 31.5948 43.7061 30.5904C43.84 30.5401 43.9404 30.5067 44.0241 30.4899V58.4643Z" fill="#9EFF00"/>
<defs>
<linearGradient id="paint0_linear_49_6118" x1="-112.75" y1="-87" x2="88.75" y2="88" gradientUnits="userSpaceOnUse">
<stop offset="0.224072" stop-color="#9EFF00"/>
<stop offset="0.707836" stop-color="#9EFF00" stop-opacity="0"/>
</linearGradient>
</defs>
</svg>
