<svg width="88" height="88" viewBox="0 0 88 88" fill="none" xmlns="http://www.w3.org/2000/svg">
<rect x="0.5" y="0.5" width="87" height="87" rx="11.5" fill="url(#paint0_linear_49_6085)" fill-opacity="0.2"/>
<rect x="0.5" y="0.5" width="87" height="87" rx="11.5" stroke="#262626"/>
<path fill-rule="evenodd" clip-rule="evenodd" d="M26.5 40.3872V43.375C26.5 45.1009 27.8991 46.5 29.625 46.5H58.375C60.1009 46.5 61.5 45.1009 61.5 43.375V40.3872C61.5 39.1937 61.073 38.0395 60.2963 37.1333L54.8215 30.746C53.8716 29.6378 52.4849 29 51.0252 29H36.9748C35.5151 29 34.1284 29.6378 33.1785 30.746L27.7037 37.1333C26.927 38.0395 26.5 39.1937 26.5 40.3872ZM36.9748 31.5C36.2449 31.5 35.5516 31.8189 35.0766 32.373L30.4678 37.75H35.7431C37.4148 37.75 38.976 38.5855 39.9033 39.9765L40.1768 40.3868C40.6405 41.0822 41.4211 41.5 42.2569 41.5H45.7431C46.5789 41.5 47.3595 41.0822 47.8232 40.3868L48.0967 39.9765C49.024 38.5855 50.5852 37.75 52.2569 37.75H57.5322L52.9234 32.373C52.4484 31.8189 51.7551 31.5 51.0252 31.5H36.9748Z" fill="#9EFF00"/>
<path d="M28.6875 49C27.4794 49 26.5 49.9794 26.5 51.1875V54C26.5 56.7614 28.7386 59 31.5 59H56.5C59.2614 59 61.5 56.7614 61.5 54V51.1875C61.5 49.9794 60.5206 49 59.3125 49H52.2569C50.5852 49 49.024 49.8355 48.0967 51.2265L47.8232 51.6368C47.3595 52.3322 46.5789 52.75 45.7431 52.75H42.2569C41.4211 52.75 40.6405 52.3322 40.1768 51.6367L39.9033 51.2265C38.976 49.8355 37.4148 49 35.7431 49H28.6875Z" fill="#9EFF00"/>
<defs>
<linearGradient id="paint0_linear_49_6085" x1="-113.5" y1="-87" x2="88" y2="88" gradientUnits="userSpaceOnUse">
<stop offset="0.224072" stop-color="#9EFF00"/>
<stop offset="0.707836" stop-color="#9EFF00" stop-opacity="0"/>
</linearGradient>
</defs>
</svg>
