<svg width="88" height="88" viewBox="0 0 88 88" fill="none" xmlns="http://www.w3.org/2000/svg">
<rect x="0.5" y="0.5" width="87" height="87" rx="11.5" fill="url(#paint0_linear_49_6058)" fill-opacity="0.2"/>
<rect x="0.5" y="0.5" width="87" height="87" rx="11.5" stroke="#262626"/>
<path fill-rule="evenodd" clip-rule="evenodd" d="M33.1302 33.2648C33.453 32.2158 34.4221 31.5 35.5197 31.5H39C39.6904 31.5 40.25 30.9404 40.25 30.25C40.25 29.5596 39.6904 29 39 29H35.5197C33.3246 29 31.3863 30.4316 30.7408 32.5296L26.7211 45.5934C26.5745 46.0698 26.5 46.5655 26.5 47.0639V54C26.5 56.7614 28.7386 59 31.5 59H56.5C59.2614 59 61.5 56.7614 61.5 54V47.0639C61.5 46.5655 61.4255 46.0698 61.2789 45.5934L57.2592 32.5296C56.6137 30.4316 54.6754 29 52.4803 29H49C48.3096 29 47.75 29.5596 47.75 30.25C47.75 30.9404 48.3096 31.5 49 31.5H52.4803C53.5779 31.5 54.547 32.2158 54.8698 33.2648L58.5575 45.25H53.8176C51.9238 45.25 50.1925 46.32 49.3455 48.0139L48.9184 48.868C48.495 49.715 47.6293 50.25 46.6824 50.25H41.3176C40.3707 50.25 39.505 49.715 39.0816 48.868L38.6545 48.0139C37.8075 46.32 36.0762 45.25 34.1824 45.25H29.4424L33.1302 33.2648Z" fill="#9EFF00"/>
<path fill-rule="evenodd" clip-rule="evenodd" d="M44 27.75C44.6904 27.75 45.25 28.3096 45.25 29V39.7322L48.1161 36.8661C48.6043 36.378 49.3957 36.378 49.8839 36.8661C50.372 37.3543 50.372 38.1457 49.8839 38.6339L44.8839 43.6339C44.3957 44.122 43.6043 44.122 43.1161 43.6339L38.1161 38.6339C37.628 38.1457 37.628 37.3543 38.1161 36.8661C38.6043 36.378 39.3957 36.378 39.8839 36.8661L42.75 39.7322V29C42.75 28.3096 43.3096 27.75 44 27.75Z" fill="#9EFF00"/>
<defs>
<linearGradient id="paint0_linear_49_6058" x1="-113.5" y1="-87" x2="88" y2="88" gradientUnits="userSpaceOnUse">
<stop offset="0.224072" stop-color="#9EFF00"/>
<stop offset="0.707836" stop-color="#9EFF00" stop-opacity="0"/>
</linearGradient>
</defs>
</svg>
