<svg width="89" height="88" viewBox="0 0 89 88" fill="none" xmlns="http://www.w3.org/2000/svg">
<rect x="0.832031" y="0.5" width="87" height="87" rx="11.5" fill="url(#paint0_linear_53_1924)" fill-opacity="0.2"/>
<rect x="0.832031" y="0.5" width="87" height="87" rx="11.5" stroke="#262626"/>
<path fill-rule="evenodd" clip-rule="evenodd" d="M38.082 35.25C38.082 31.7982 40.8803 29 44.332 29C47.7838 29 50.582 31.7982 50.582 35.25C50.582 38.7018 47.7838 41.5 44.332 41.5C40.8803 41.5 38.082 38.7018 38.082 35.25Z" fill="#9EFF00"/>
<path fill-rule="evenodd" clip-rule="evenodd" d="M50.582 40.25C50.582 37.4886 52.8206 35.25 55.582 35.25C58.3435 35.25 60.582 37.4886 60.582 40.25C60.582 43.0114 58.3435 45.25 55.582 45.25C52.8206 45.25 50.582 43.0114 50.582 40.25Z" fill="#9EFF00"/>
<path fill-rule="evenodd" clip-rule="evenodd" d="M28.082 40.25C28.082 37.4886 30.3206 35.25 33.082 35.25C35.8435 35.25 38.082 37.4886 38.082 40.25C38.082 43.0114 35.8435 45.25 33.082 45.25C30.3206 45.25 28.082 43.0114 28.082 40.25Z" fill="#9EFF00"/>
<path fill-rule="evenodd" clip-rule="evenodd" d="M34.8485 49.1959C36.8451 46.074 40.3459 44 44.332 44C48.3186 44 51.8198 46.0745 53.8164 49.197C55.1966 51.3557 55.7938 53.9587 55.5136 56.4965C55.4699 56.8932 55.2394 57.245 54.8933 57.4436C51.781 59.2294 48.1738 60.25 44.332 60.25C40.4902 60.25 36.883 59.2294 33.7708 57.4436C33.4247 57.245 33.1942 56.8931 33.1504 56.4965C32.8703 53.9582 33.4677 51.3548 34.8485 49.1959Z" fill="#9EFF00"/>
<path d="M32.8025 47.7561C32.7824 47.787 32.7625 47.8179 32.7427 47.8489C31.1336 50.3648 30.3972 53.3611 30.6232 56.315C29.6098 56.1611 28.6265 55.9135 27.6827 55.5811L27.4911 55.5136C27.1416 55.3905 26.8974 55.0731 26.868 54.7037L26.8519 54.5012C26.8387 54.3357 26.832 54.1685 26.832 54C26.832 50.6419 29.4804 47.9024 32.8025 47.7561Z" fill="#9EFF00"/>
<path d="M58.0414 56.3149C58.2674 53.3617 57.5314 50.366 55.9229 47.8503C55.9028 47.8188 55.8825 47.7875 55.8622 47.7562C59.1839 47.9027 61.832 50.6421 61.832 54C61.832 54.1685 61.8253 54.3357 61.8122 54.5012L61.796 54.7037C61.7667 55.0731 61.5224 55.3905 61.1729 55.5136L60.9813 55.5811C60.0377 55.9134 59.0546 56.161 58.0414 56.3149Z" fill="#9EFF00"/>
<defs>
<linearGradient id="paint0_linear_53_1924" x1="-113.168" y1="-87" x2="88.332" y2="88" gradientUnits="userSpaceOnUse">
<stop offset="0.224072" stop-color="#9EFF00"/>
<stop offset="0.707836" stop-color="#9EFF00" stop-opacity="0"/>
</linearGradient>
</defs>
</svg>
