<svg width="80" height="80" viewBox="0 0 80 80" fill="none" xmlns="http://www.w3.org/2000/svg">
<rect x="0.5" y="0.5" width="79" height="79" rx="11.5" fill="url(#paint0_linear_37_389)"/>
<rect x="0.5" y="0.5" width="79" height="79" rx="11.5" stroke="url(#paint1_linear_37_389)"/>
<path d="M33.131 51.308C31.171 51.308 29.6124 50.7573 28.455 49.656C27.3164 48.536 26.747 47.0333 26.747 45.148V37.252C26.747 35.3853 27.3164 33.9107 28.455 32.828C29.6124 31.7267 31.171 31.176 33.131 31.176C35.091 31.176 36.6497 31.7267 37.807 32.828C38.983 33.9107 39.571 35.3853 39.571 37.252V45.148C39.571 47.0333 38.983 48.536 37.807 49.656C36.6497 50.7573 35.091 51.308 33.131 51.308ZM33.131 48.48C34.1017 48.48 34.8764 48.2 35.455 47.64C36.0337 47.0613 36.323 46.2867 36.323 45.316V37.14C36.323 36.1693 36.0337 35.404 35.455 34.844C34.8764 34.2653 34.1017 33.976 33.131 33.976C32.179 33.976 31.4137 34.2653 30.835 34.844C30.275 35.404 29.995 36.1693 29.995 37.14V45.316C29.995 46.2867 30.275 47.0613 30.835 47.64C31.4137 48.2 32.179 48.48 33.131 48.48ZM44.9011 51C44.6211 51 44.5278 50.8693 44.6211 50.608L50.8091 34.368C50.8464 34.256 50.8091 34.2 50.6971 34.2H44.6771C44.5838 34.2 44.5371 34.2467 44.5371 34.34V35.6C44.5371 35.6933 44.4998 35.7773 44.4251 35.852C44.3691 35.908 44.2944 35.936 44.2011 35.936H42.1851C42.0918 35.936 42.0078 35.908 41.9331 35.852C41.8771 35.7773 41.8491 35.6933 41.8491 35.6V31.736C41.8491 31.6427 41.8771 31.568 41.9331 31.512C42.0078 31.4373 42.0918 31.4 42.1851 31.4H53.9731C54.0664 31.4 54.1411 31.4373 54.1971 31.512C54.2718 31.568 54.3091 31.6427 54.3091 31.736V33.976C54.3091 34.088 54.2811 34.228 54.2251 34.396L48.0651 50.72C48.0091 50.9067 47.8784 51 47.6731 51H44.9011Z" fill="white"/>
<defs>
<linearGradient id="paint0_linear_37_389" x1="40" y1="0" x2="40" y2="80" gradientUnits="userSpaceOnUse">
<stop stop-color="#242424"/>
<stop offset="1" stop-color="#242424" stop-opacity="0"/>
</linearGradient>
<linearGradient id="paint1_linear_37_389" x1="40" y1="0" x2="40" y2="80" gradientUnits="userSpaceOnUse">
<stop stop-color="#2E2E2E"/>
<stop offset="1" stop-color="#2E2E2E" stop-opacity="0"/>
</linearGradient>
</defs>
</svg>
