<svg width="80" height="80" viewBox="0 0 80 80" fill="none" xmlns="http://www.w3.org/2000/svg">
<rect x="0.5" y="0.5" width="79" height="79" rx="11.5" fill="url(#paint0_linear_37_382)"/>
<rect x="0.5" y="0.5" width="79" height="79" rx="11.5" stroke="url(#paint1_linear_37_382)"/>
<path d="M32.5568 51.308C30.5968 51.308 29.0381 50.7573 27.8808 49.656C26.7421 48.536 26.1728 47.0333 26.1728 45.148V37.252C26.1728 35.3853 26.7421 33.9107 27.8808 32.828C29.0381 31.7267 30.5968 31.176 32.5568 31.176C34.5168 31.176 36.0755 31.7267 37.2328 32.828C38.4088 33.9107 38.9968 35.3853 38.9968 37.252V45.148C38.9968 47.0333 38.4088 48.536 37.2328 49.656C36.0755 50.7573 34.5168 51.308 32.5568 51.308ZM32.5568 48.48C33.5275 48.48 34.3021 48.2 34.8808 47.64C35.4595 47.0613 35.7488 46.2867 35.7488 45.316V37.14C35.7488 36.1693 35.4595 35.404 34.8808 34.844C34.3021 34.2653 33.5275 33.976 32.5568 33.976C31.6048 33.976 30.8395 34.2653 30.2608 34.844C29.7008 35.404 29.4208 36.1693 29.4208 37.14V45.316C29.4208 46.2867 29.7008 47.0613 30.2608 47.64C30.8395 48.2 31.6048 48.48 32.5568 48.48ZM53.5109 41.34C54.0149 42.292 54.2669 43.4493 54.2669 44.812C54.2669 45.9507 54.0802 46.9493 53.7069 47.808C53.2589 48.8907 52.5495 49.7307 51.5789 50.328C50.6269 50.9067 49.4789 51.196 48.1349 51.196C46.7349 51.196 45.5402 50.8787 44.5509 50.244C43.5615 49.5907 42.8522 48.6853 42.4229 47.528C42.1242 46.744 41.9749 45.8293 41.9749 44.784V36.244C41.9749 35.236 42.2269 34.3493 42.7309 33.584C43.2349 32.8187 43.9349 32.2307 44.8309 31.82C45.7455 31.3907 46.7909 31.176 47.9669 31.176C49.1055 31.176 50.1135 31.3813 50.9909 31.792C51.8869 32.2027 52.5775 32.7813 53.0629 33.528C53.5669 34.2747 53.8189 35.1333 53.8189 36.104V36.72C53.8189 36.8133 53.7815 36.8973 53.7069 36.972C53.6509 37.028 53.5762 37.056 53.4829 37.056H50.9069C50.8135 37.056 50.7295 37.028 50.6549 36.972C50.5989 36.8973 50.5709 36.8133 50.5709 36.72V36.524C50.5709 35.7773 50.3189 35.1707 49.8149 34.704C49.3295 34.2187 48.7042 33.976 47.9389 33.976C47.1549 33.976 46.5015 34.228 45.9789 34.732C45.4749 35.2173 45.2229 35.852 45.2229 36.636V39.688C45.2229 39.744 45.2415 39.7813 45.2789 39.8C45.3162 39.8187 45.3535 39.8093 45.3909 39.772C46.1749 39.0067 47.2575 38.624 48.6389 38.624C49.7402 38.624 50.7015 38.8573 51.5229 39.324C52.3629 39.7907 53.0255 40.4627 53.5109 41.34ZM50.5989 46.856C50.8789 46.296 51.0189 45.6333 51.0189 44.868C51.0189 44.028 50.8602 43.3093 50.5429 42.712C50.0202 41.816 49.2082 41.368 48.1069 41.368C46.9495 41.368 46.1282 41.8347 45.6429 42.768C45.3629 43.328 45.2229 44.056 45.2229 44.952C45.2229 45.7173 45.3442 46.3427 45.5869 46.828C46.0349 47.8547 46.8749 48.368 48.1069 48.368C49.2829 48.368 50.1135 47.864 50.5989 46.856Z" fill="white"/>
<defs>
<linearGradient id="paint0_linear_37_382" x1="40" y1="0" x2="40" y2="80" gradientUnits="userSpaceOnUse">
<stop stop-color="#242424"/>
<stop offset="1" stop-color="#242424" stop-opacity="0"/>
</linearGradient>
<linearGradient id="paint1_linear_37_382" x1="40" y1="0" x2="40" y2="80" gradientUnits="userSpaceOnUse">
<stop stop-color="#2E2E2E"/>
<stop offset="1" stop-color="#2E2E2E" stop-opacity="0"/>
</linearGradient>
</defs>
</svg>
