<svg width="80" height="80" viewBox="0 0 80 80" fill="none" xmlns="http://www.w3.org/2000/svg">
<rect x="0.5" y="0.5" width="79" height="79" rx="11.5" fill="url(#paint0_linear_37_360)"/>
<rect x="0.5" y="0.5" width="79" height="79" rx="11.5" stroke="url(#paint1_linear_37_360)"/>
<path d="M32.5295 51.308C30.5695 51.308 29.0108 50.7573 27.8535 49.656C26.7148 48.536 26.1455 47.0333 26.1455 45.148V37.252C26.1455 35.3853 26.7148 33.9107 27.8535 32.828C29.0108 31.7267 30.5695 31.176 32.5295 31.176C34.4895 31.176 36.0481 31.7267 37.2055 32.828C38.3815 33.9107 38.9695 35.3853 38.9695 37.252V45.148C38.9695 47.0333 38.3815 48.536 37.2055 49.656C36.0481 50.7573 34.4895 51.308 32.5295 51.308ZM32.5295 48.48C33.5001 48.48 34.2748 48.2 34.8535 47.64C35.4321 47.0613 35.7215 46.2867 35.7215 45.316V37.14C35.7215 36.1693 35.4321 35.404 34.8535 34.844C34.2748 34.2653 33.5001 33.976 32.5295 33.976C31.5775 33.976 30.8121 34.2653 30.2335 34.844C29.6735 35.404 29.3935 36.1693 29.3935 37.14V45.316C29.3935 46.2867 29.6735 47.0613 30.2335 47.64C30.8121 48.2 31.5775 48.48 32.5295 48.48ZM53.3995 41.676C53.7729 42.572 53.9595 43.5987 53.9595 44.756C53.9595 45.8013 53.8009 46.7253 53.4835 47.528C53.0542 48.704 52.3449 49.6187 51.3555 50.272C50.3662 50.9067 49.1715 51.224 47.7715 51.224C46.3902 51.224 45.1862 50.8787 44.1595 50.188C43.1515 49.4787 42.4329 48.5267 42.0035 47.332C41.7795 46.7533 41.6489 45.9973 41.6115 45.064C41.6115 44.84 41.7235 44.728 41.9475 44.728H44.5515C44.7755 44.728 44.8875 44.84 44.8875 45.064C44.9249 45.6613 45.0182 46.1373 45.1675 46.492C45.3355 47.0893 45.6435 47.5653 46.0915 47.92C46.5582 48.256 47.1182 48.424 47.7715 48.424C49.0035 48.424 49.8529 47.864 50.3195 46.744C50.5622 46.2027 50.6835 45.5027 50.6835 44.644C50.6835 43.692 50.5435 42.908 50.2635 42.292C49.7782 41.2467 48.9382 40.724 47.7435 40.724C47.4262 40.724 46.9969 40.9107 46.4555 41.284C46.3809 41.3213 46.3155 41.34 46.2595 41.34C46.1662 41.34 46.0729 41.284 45.9795 41.172L44.6915 39.38C44.6355 39.2867 44.6075 39.212 44.6075 39.156C44.6075 39.0627 44.6449 38.9787 44.7195 38.904L49.3395 34.368C49.3769 34.3307 49.3862 34.2933 49.3675 34.256C49.3489 34.2187 49.3115 34.2 49.2555 34.2H42.2555C42.1622 34.2 42.0782 34.172 42.0035 34.116C41.9475 34.0413 41.9195 33.9573 41.9195 33.864V31.736C41.9195 31.6427 41.9475 31.568 42.0035 31.512C42.0782 31.4373 42.1622 31.4 42.2555 31.4H53.4275C53.5209 31.4 53.5955 31.4373 53.6515 31.512C53.7262 31.568 53.7635 31.6427 53.7635 31.736V34.172C53.7635 34.34 53.7075 34.48 53.5955 34.592L49.5915 38.624C49.5169 38.6987 49.5542 38.7547 49.7035 38.792C51.4395 39.0347 52.6715 39.996 53.3995 41.676Z" fill="white"/>
<defs>
<linearGradient id="paint0_linear_37_360" x1="40" y1="0" x2="40" y2="80" gradientUnits="userSpaceOnUse">
<stop stop-color="#242424"/>
<stop offset="1" stop-color="#242424" stop-opacity="0"/>
</linearGradient>
<linearGradient id="paint1_linear_37_360" x1="40" y1="0" x2="40" y2="80" gradientUnits="userSpaceOnUse">
<stop stop-color="#2E2E2E"/>
<stop offset="1" stop-color="#2E2E2E" stop-opacity="0"/>
</linearGradient>
</defs>
</svg>
