<svg width="80" height="80" viewBox="0 0 80 80" fill="none" xmlns="http://www.w3.org/2000/svg">
<rect x="0.5" y="0.5" width="79" height="79" rx="11.5" fill="url(#paint0_linear_37_338)"/>
<rect x="0.5" y="0.5" width="79" height="79" rx="11.5" stroke="url(#paint1_linear_37_338)"/>
<path d="M32.256 51.308C30.296 51.308 28.7374 50.7573 27.58 49.656C26.4414 48.536 25.872 47.0333 25.872 45.148V37.252C25.872 35.3853 26.4414 33.9107 27.58 32.828C28.7374 31.7267 30.296 31.176 32.256 31.176C34.216 31.176 35.7747 31.7267 36.932 32.828C38.108 33.9107 38.696 35.3853 38.696 37.252V45.148C38.696 47.0333 38.108 48.536 36.932 49.656C35.7747 50.7573 34.216 51.308 32.256 51.308ZM32.256 48.48C33.2267 48.48 34.0014 48.2 34.58 47.64C35.1587 47.0613 35.448 46.2867 35.448 45.316V37.14C35.448 36.1693 35.1587 35.404 34.58 34.844C34.0014 34.2653 33.2267 33.976 32.256 33.976C31.304 33.976 30.5387 34.2653 29.96 34.844C29.4 35.404 29.12 36.1693 29.12 37.14V45.316C29.12 46.2867 29.4 47.0613 29.96 47.64C30.5387 48.2 31.304 48.48 32.256 48.48ZM45.9861 48.032C45.9488 48.0693 45.9301 48.1067 45.9301 48.144C45.9488 48.1813 45.9861 48.2 46.0421 48.2H54.0221C54.1154 48.2 54.1901 48.2373 54.2461 48.312C54.3208 48.368 54.3581 48.4427 54.3581 48.536V50.664C54.3581 50.7573 54.3208 50.8413 54.2461 50.916C54.1901 50.972 54.1154 51 54.0221 51H41.9821C41.8888 51 41.8048 50.972 41.7301 50.916C41.6741 50.8413 41.6461 50.7573 41.6461 50.664V48.648C41.6461 48.48 41.7021 48.34 41.8141 48.228C43.2328 46.716 44.8754 44.8587 46.7421 42.656L48.0581 41.116C49.7754 39.1187 50.6341 37.6067 50.6341 36.58C50.6341 35.8147 50.3634 35.1893 49.8221 34.704C49.2808 34.2187 48.5808 33.976 47.7221 33.976C46.8634 33.976 46.1634 34.2187 45.6221 34.704C45.0994 35.1893 44.8381 35.8333 44.8381 36.636V37.364C44.8381 37.4573 44.8008 37.5413 44.7261 37.616C44.6701 37.672 44.5954 37.7 44.5021 37.7H41.8981C41.8048 37.7 41.7208 37.672 41.6461 37.616C41.5901 37.5413 41.5621 37.4573 41.5621 37.364V36.16C41.5994 35.152 41.8888 34.2747 42.4301 33.528C42.9714 32.7813 43.6994 32.2027 44.6141 31.792C45.5474 31.3813 46.5834 31.176 47.7221 31.176C48.9728 31.176 50.0648 31.4093 50.9981 31.876C51.9314 32.3427 52.6501 32.9867 53.1541 33.808C53.6581 34.6107 53.9101 35.516 53.9101 36.524C53.9101 38.0547 53.0981 39.8187 51.4741 41.816C50.5781 42.936 49.1034 44.616 47.0501 46.856L45.9861 48.032Z" fill="white"/>
<defs>
<linearGradient id="paint0_linear_37_338" x1="40" y1="0" x2="40" y2="80" gradientUnits="userSpaceOnUse">
<stop stop-color="#242424"/>
<stop offset="1" stop-color="#242424" stop-opacity="0"/>
</linearGradient>
<linearGradient id="paint1_linear_37_338" x1="40" y1="0" x2="40" y2="80" gradientUnits="userSpaceOnUse">
<stop stop-color="#2E2E2E"/>
<stop offset="1" stop-color="#2E2E2E" stop-opacity="0"/>
</linearGradient>
</defs>
</svg>
